<mxfile host="app.diagrams.net" modified="2022-05-16T04:50:03.960Z" agent="5.0 (Windows NT 10.0; Win64; x64) AppleWebKit/537.36 (KHTML, like Gecko) Chrome/101.0.4951.64 Safari/537.36" etag="PTjplnGZjWxePmGCmRG1" version="18.0.3" type="github">
  <diagram id="9GA8FFTQTpmKpFGb2E2h" name="Page-1">
    <mxGraphModel dx="824" dy="660" grid="1" gridSize="10" guides="1" tooltips="1" connect="1" arrows="1" fold="1" page="1" pageScale="1" pageWidth="827" pageHeight="1169" math="0" shadow="0">
      <root>
        <mxCell id="0" />
        <mxCell id="1" parent="0" />
        <mxCell id="voiFLc3XGYJ2ryhJtGz0-20" value="" style="rounded=0;whiteSpace=wrap;html=1;dashed=1;strokeColor=#6c8ebf;fillColor=#dae8fc;" vertex="1" parent="1">
          <mxGeometry x="540" y="280" width="190" height="100" as="geometry" />
        </mxCell>
        <mxCell id="voiFLc3XGYJ2ryhJtGz0-3" value="" style="rounded=0;whiteSpace=wrap;html=1;fillColor=none;strokeColor=#82b366;dashed=1;" vertex="1" parent="1">
          <mxGeometry x="60" y="280" width="190" height="100" as="geometry" />
        </mxCell>
        <mxCell id="voiFLc3XGYJ2ryhJtGz0-11" style="edgeStyle=orthogonalEdgeStyle;rounded=0;orthogonalLoop=1;jettySize=auto;html=1;entryX=0;entryY=0.5;entryDx=0;entryDy=0;fontColor=#FF0000;" edge="1" parent="1" source="voiFLc3XGYJ2ryhJtGz0-1" target="voiFLc3XGYJ2ryhJtGz0-5">
          <mxGeometry relative="1" as="geometry" />
        </mxCell>
        <mxCell id="voiFLc3XGYJ2ryhJtGz0-1" value="数据增强" style="rounded=0;whiteSpace=wrap;html=1;fillColor=#d5e8d4;strokeColor=#82b366;" vertex="1" parent="1">
          <mxGeometry x="160" y="320" width="80" height="40" as="geometry" />
        </mxCell>
        <mxCell id="voiFLc3XGYJ2ryhJtGz0-14" style="edgeStyle=orthogonalEdgeStyle;rounded=0;orthogonalLoop=1;jettySize=auto;html=1;entryX=-0.015;entryY=0.496;entryDx=0;entryDy=0;entryPerimeter=0;fontColor=#FF0000;" edge="1" parent="1" source="voiFLc3XGYJ2ryhJtGz0-2" target="voiFLc3XGYJ2ryhJtGz0-1">
          <mxGeometry relative="1" as="geometry" />
        </mxCell>
        <mxCell id="voiFLc3XGYJ2ryhJtGz0-2" value="数据集" style="ellipse;whiteSpace=wrap;html=1;fillColor=#d5e8d4;strokeColor=#82b366;" vertex="1" parent="1">
          <mxGeometry x="60" y="315" width="60" height="50" as="geometry" />
        </mxCell>
        <mxCell id="voiFLc3XGYJ2ryhJtGz0-4" value="&lt;font color=&quot;#00cc66&quot;&gt;数据预处理&lt;/font&gt;" style="text;html=1;strokeColor=none;fillColor=none;align=center;verticalAlign=middle;whiteSpace=wrap;rounded=0;dashed=1;" vertex="1" parent="1">
          <mxGeometry x="101.25" y="280" width="92.5" height="30" as="geometry" />
        </mxCell>
        <mxCell id="voiFLc3XGYJ2ryhJtGz0-10" value="" style="group;fillColor=#f8cecc;strokeColor=#b85450;dashed=1;" vertex="1" connectable="0" parent="1">
          <mxGeometry x="280" y="280" width="220" height="100" as="geometry" />
        </mxCell>
        <mxCell id="voiFLc3XGYJ2ryhJtGz0-7" value="" style="rounded=0;whiteSpace=wrap;html=1;fillColor=none;strokeColor=#FF0000;dashed=1;" vertex="1" parent="voiFLc3XGYJ2ryhJtGz0-10">
          <mxGeometry width="220" height="100" as="geometry" />
        </mxCell>
        <mxCell id="voiFLc3XGYJ2ryhJtGz0-5" value="ResNet50卷积层" style="rounded=0;whiteSpace=wrap;html=1;fillColor=#fff2cc;strokeColor=#d6b656;" vertex="1" parent="voiFLc3XGYJ2ryhJtGz0-10">
          <mxGeometry x="7.071707317073171" y="40" width="85.85365853658537" height="40" as="geometry" />
        </mxCell>
        <mxCell id="voiFLc3XGYJ2ryhJtGz0-6" value="特征图" style="ellipse;whiteSpace=wrap;html=1;fillColor=#fff2cc;strokeColor=#d6b656;" vertex="1" parent="voiFLc3XGYJ2ryhJtGz0-10">
          <mxGeometry x="139.51219512195124" y="35" width="75.1219512195122" height="50" as="geometry" />
        </mxCell>
        <mxCell id="voiFLc3XGYJ2ryhJtGz0-9" style="edgeStyle=orthogonalEdgeStyle;rounded=0;orthogonalLoop=1;jettySize=auto;html=1;exitX=1;exitY=0.5;exitDx=0;exitDy=0;entryX=0;entryY=0.5;entryDx=0;entryDy=0;fontColor=#00CC66;" edge="1" parent="voiFLc3XGYJ2ryhJtGz0-10" source="voiFLc3XGYJ2ryhJtGz0-5" target="voiFLc3XGYJ2ryhJtGz0-6">
          <mxGeometry relative="1" as="geometry" />
        </mxCell>
        <mxCell id="voiFLc3XGYJ2ryhJtGz0-8" value="&lt;p class=&quot;MsoNormal&quot;&gt;&lt;span&gt;&lt;font color=&quot;#ff0000&quot; face=&quot;Times New Roman&quot;&gt;ResNet50-FPN&lt;/font&gt;&lt;/span&gt;&lt;/p&gt;" style="text;html=1;strokeColor=none;fillColor=none;align=center;verticalAlign=middle;whiteSpace=wrap;rounded=0;dashed=1;" vertex="1" parent="voiFLc3XGYJ2ryhJtGz0-10">
          <mxGeometry x="60.36585365853659" width="99.26829268292684" height="30" as="geometry" />
        </mxCell>
        <mxCell id="voiFLc3XGYJ2ryhJtGz0-15" style="edgeStyle=orthogonalEdgeStyle;rounded=0;orthogonalLoop=1;jettySize=auto;html=1;entryX=0.5;entryY=1;entryDx=0;entryDy=0;fontColor=#FF0000;" edge="1" parent="1" source="voiFLc3XGYJ2ryhJtGz0-12" target="voiFLc3XGYJ2ryhJtGz0-5">
          <mxGeometry relative="1" as="geometry" />
        </mxCell>
        <mxCell id="voiFLc3XGYJ2ryhJtGz0-18" style="edgeStyle=orthogonalEdgeStyle;rounded=0;orthogonalLoop=1;jettySize=auto;html=1;fontColor=#FF0000;" edge="1" parent="1" source="voiFLc3XGYJ2ryhJtGz0-17" target="voiFLc3XGYJ2ryhJtGz0-6">
          <mxGeometry relative="1" as="geometry" />
        </mxCell>
        <mxCell id="voiFLc3XGYJ2ryhJtGz0-17" value="" style="shape=image;verticalLabelPosition=bottom;labelBackgroundColor=default;verticalAlign=top;aspect=fixed;imageAspect=0;image=data:image/png,iVBORw0KGgoAAAANSUhEUgAAAWgAAACNCAYAAACaG+BQAAAgAElEQVR4nOy9WbBk13Wm96299xlyuGPNcxWqCgUUJgIFgABJkRQpqaXWFCGHXtoR7narn+wI2yHb4Uc/+sEK+9UP7lbYbEsW3dGttim2SKkpUSQBgSCAIgEUUKh5Hu+Y92bmOWcPftjn5M1bKBQAFSBSrLsi8mbezJN5Tp7c599rr/Wvf0kIIbBhH9m8heBAAdKcueZe6psCL+CJ96w9jQogEkBVgL3/A5I7fr4wtsP6QRgdmLB+6/icoJG1N2zYhm3Yz4jJBkB/dAtACVREsNXBo4JD4ZAQQCCgCKLxomtgjLCogkfwqODjM0qNXr//oxo3Wffs2j7uBtDxWV1/nw3bsA372TLz0z6Af0gWCFRUDLAoHFo8SjwaP/JTa+iu7yMoajxIvY14PAmWDv7vARYD74fwcVNsgPOGbdjPqm0A9McwAZIaigWFGv0NYwAt0YseCyus/Q2EGsB/2qAoH/B4wzZsw352bCPE8XEt+HgDaE7dujiwRH9axmEvjAUXAhIEkcbDvo9Dof6I5jDWv8IH+85hLG4uIBt+9IZt2M+ibXjQH9eCAq/WY2tg9H+o/0hYy9eNnh97rN737N/xcMbAef00cccOP2h/4X3ovmEbtmE/I7YB0B/XGpYGkaERWGNqwJozPZ6aA0ZOawPa8T2fgAd9537G/pPmeOT924172yIb6LxhG/azaBsA/TEtSCBIIHI3aqCuXxNAyRoFT4XaU66RNAC+9qw/LHn3kY+He3vPQe7i7DcRDokb3H+wZcM2bMM+DdsA6I9lgUCBDwVODJ4ER4Kv4a3hbigHxjskePAuhkVCk1JUeAlIJjjlPnBP8pE8bPmAbe4k1zXHHgje453HJPGn7w/6ZFkLpfS997ThZW/Yhv292wZAfywLODsA+mjTHqX+KgyqiSpbT1sCohx4D+Jql3Ut1qAEEIsS/0E7+oh2N993vV/ua0BGAlo1kW+H96CUJkkTxrFXRGjyxuP3Wt8bwDdswzbsk7cNgP5YJiQhrWMaOZ40FqUocBILWIJRlIBB12Q7V7OmFZa4jSCkGD4M8j5SCOQeGwUYxcsBTJ3brASqErSGljFkQOr9yEseB2nv/QZAb9iG/ZRsA6A/jgXAp1AAKkUbDQLLBdxchtVqiBgIYQAUBLEEqSiVqW8phUpJHUxVltx9cIgjJhU/DKJlPVWkeW6Mla2NIQh4H0AplGic95RFSZqmbJlosacjTCuPqj1sERmB9AYLc8M27KdnGwD9cUwEi8bpnGGiWVVwZRXevNTnxPkL9MoB+UQGYUBgiFcWLxWFTii1YahSCp2RW8P0QOiUn8hBrbsPddgjMkYEpQ0ohXOesrL4AFoniBKyLGf3ZMGvHp5hIo+ThVJqnSetlNoA6Q3bsJ+SbQD0x7AA9LVimEBPwYUleO3sCj86e4lLCwv4VJOLwvkiArSucMoy1I6hNhQ6MNTQqoTZXkK3+JDT/2F5ubCOUFfHxGNgJUgEaY+gdEIQYTAoqKwnzTJQihBg51yPY3tnOJj6dZ5z87jxqjdswzbs7982APpjWAC8gQFwbQBvX7rFm2cvcGNpSNbpoIxmuNLDhAFJGCJiUWIpladSnlIrhkphfKBVDNDugxE4kjjujdASxjA8NKCsCCi8RMAuKoekGVnWQhuH00LWgqIcsjLoU5YDJOweec53sjU22BsbtmE/PdsA6I9hARjguVwsc/LKHGeu3qA3XKXV6pC3ErCO3Fq25hmTokl9ReotngQfEqxrUYYcqwK+NSCo6r6OR9Vc6zDuQYvgUXhRBDSDssJT4twyK4MBLght1aVyjtl2wqM7ZpltK7TWdwXoDduwDfvp2QME0I6GQxG/dmQlhNHNj8IFgqzXeq5L8jywCLy7MuQnl69x7sp1hgNPaiybkoSnHjnCsUcnmdKQe0g8pE1RSFjTiK40rEpkfqxJKq2X9AhEZl5T1HKnjUeex6saZez9nqg4Pefg7XM9Xn/3NLdu3mYwXKAlwqM7d/Prz+1jZwfM2FAYTw429xuhjr+bNb9DU94/En0NYxRLUSPK5t3kYMd/0/Hn79yu2Sq875m7f9792N3UXkaXyvi3WSclEL+nr1/dUID5cHuAALrAhSWUaIQuhNYoTusIOOya6pzXJCh8CcN+RaudoNJA3/V5p+f5y/MrXLncI3MpOyY77Mo7fPboIY49MomU0Naga8mOUZVhWBMi9QITrF20euzWXDwesDJWTt58zh3bQJx6VoCyDMykggaGzqG15jbw0qkL/Mcfn+SW6dKanaG8Pc+xHdv4jWePcDiH7h1natyL3vCo788aDXELmNDcLBKaDLGAGJwYnFIjkG5+ZwWI9/G5+vU7i5BkjO9TViXDYUF3YoLKWoxJ4hj3Ae8DiRaS+/xNG+fBh/i9gtTc/vp4cRXKW7Q0U1M86qANThIsBgskQMonM2H8vNoDA9CBAE1hSIgF2hJ0pKDR9DYJeF8hlSZNcrSGIJpgYKgUb1+4xXfPzfFukdJJJ5Fhj9R6jm7fynN7Z9gK8aJwQtCBingTNCKahOhVByARAI9GMAjaE5E2Hsbo6nMNSN+hp6ECWAXDULEyLJnIOySpjDgcmdas+JKTF69z9uplXGoolSITOHhgL1947AgPTQG3B8hkTkjuff42gPqD7V4slyCCC/GnVaHeNvhYxAS19xwQHcG3CuDqGVkCGBwJFlSsUx2JEK7tofZS4yuJ1qg8Hzkb1jqs92iTYIx8Ih5rrRAQZQuam16bUJRS8fhCM6jDSDHR49fJI2zYve0BAugMy3QMbngFwYIElKjaM0mByBXW2sfeVspgJhULAu9cr/ju+VXOXl8CMbSB3TNTPLVjO08+fIDJdnxLmmiQOAxljPSmCKggdcw4ehxhTNMuMJYTrME51GviOwWOmqVyIAJ4K0voSLygh0OQljAHvHZ1lb8+eYV351ewKLYmlgPTHZ7ft5NHpoQEaE+20MmH5iM37B52r8lLgFTqoJqADoKQwChkJCAx3Kbrf3UApQIaj8EhEd5xNhC1yOswQmjY7tFTDd6DDyRaYwclWZKCCF5rnA0Mi5Is0ejk/i77UC8HlWoKZQVjGVveqfo7eRDwEur8SJQ7MGHtfGwMu3vbAwTQBo+JPGBfRI0M5UEUojKgiT4nKF0yHCxD0qZMck7ecvzlyau8Na+pdJcJ22NKGx7bt5cXj+5iew52GL1inQS81O2tYB1A6yDoEC+neviuxReldjLG/r/Ta77z5vE4PF1lyCrHsG9ptTKWPBy/6virU7c5v6pZTaboDPvszTWf27GNL+yZZNpA2Stpd1J8CDi/4dN8GhYnYzUaByEEXA3KDbyGED1dUYIQ4jjCooKD4OLMT0DrZO1DkTirhiZQ5hEfwDkwCSYEsC6GNkIMj+TGIALuXgVSH8G8cgQVJwUdFNrp6EKH2kuQAEpwSuFGYb5aiSYIxtWLWcUDhEB/N3tgTo+E6JnE0ZKClDS+qw6eTFQd63U4oEwMQ224VsArl2/y4+srzPk2kzJgT6o5vGUzT+7Zwc42JCWYEEgTCK5EVBykMb4sNfEtxP3XzAv0HQkbWbvu1hKXa0mYuGSs/6lfSERoIQRbMSwcPuswTOGNa/Cdk5c5sWBZ6Wu0STk02eFzO2b47PbNHMriBdJLwQWLUYqNprGfjikCEioIgSBqxLDxrE3AAoiEuo1aQI+yDrHM3geJAlvKE0RqzzmMedFNmtvjdcAYh8UT8AQT96UUiNK4elq/H4uyWy6Ob11LhLk6VohA0HiBSjX5nVC7PjquIByMgtDjQfUNe589MABNAKmbaHsRlJj4hASU96QSVeYq7yjw2KTFLS98//QlXr2yyA0mWA4dpunx+NZNHDt8kAMzClVC4qCTCMoXIK5JiVBH4tAjdnJN5ZCoeMddPOZxDPbh/cA8+r8GaOWE4bBCTELI4Z0F+Ov3LvHjWwNuqklSDDuyNp/ZOcVX9nTZmwELi5BAt9ulX3/0BkB/OibBx3AaDiFBJOY9xinwCjBGoYND6m0bD1m0BmUiqNdja9TfkoCShrMRCCrgvaf0A3RiKK1DlMIFUMogdQTY3XcE2OMoa4kwhW6aWNTXV1BQiqISha1jztFZFiTULnXTeflDch8Puj0wAK1CBEUv4AxUWqNEUFi0s2ArlDaIaFZCwi2Et+cKXjp9jUsLFa1Wi1bocXgm49j+LRzd2aIVIKx62plCBcdwsEo+kSPSEIlkFOZQTeq7cZH9GD7LGlUOGjwOSPCjhKDU71tHx3MKXRq07tLvCCcH8O9PnuFHtxcZ6Aky59nkPNt7PeyFeS7NVSyqPq6cp8oUq+02y9bTEUMa7p0+2kgSfrDdK0mo6hbBGo+VBCspVgxWDCIBCQ6NRYcKjYtAK1BJQkVCUd8IkCiJJLW7eNBCBGdrLZ3uBM8c+0xkWARYHZQkSUqSRifg/vznOFYdCQqoJCUxa1K7QZprTOr0oK7DO34tcbjOa94g2t3LHhiArvl0KA2FglJi61aNpkUFbgihhVcZS0F49XrJy2evcbkwrHrPhB1wZPMmXjywjUc2t5kBdJ2a18FDqBAsuDLGtYUR21ONe6cNSI+TYwmINLAc3eOmA3gU/R8PSMtahrASqISkC+8M4dunL/Ld69eZ022m8hZTRcJB3WHvSg9/4Txn+5fI8xLTDqzqwHXrWCos01mb/EOGwgZA390+TKdEaoBWYwDtRGPFoELUONShQrkCoyBojRPDSshYrBTzhWKh1EhZMaHAhAjihKao30OdLHTOMRgMmJmdYfOuowQUaWZYXgkY4zFpDHe4+9RWcdri04qgAtp5lDWIi+ELraNKokmh01rjOserwMeEZ+NlbPTC/FB7cAAaiGswPSLKx5uLuQ0xDEm5VWrO9eDld67w5qUbTExOMps6dpkhX9o/xVN7OswY0FU8eaICwVZIqsgmJ7FFH9Fx4N21V4kQKVaBtYRKfSRh7KgIAfEh6kyPYh8q0j9E4rKxToNf6sMrV2/x2rmrDCTFKEMnDDiyqc1vH97OL2yGCf8oFA5UAS0BDSselM5JkQdtIPw9WiB4C8HjRePQDayiapaGwhJciTIGKxkFhmslnL5Vcu72gBt9KAZ9KFYxUjctDp5ReUvtRWutmZub470zZ/l3Pz5Nb3WViclpPIIohfdQuQrv7+1Dj2uxEGqOdQgjqo9Qok2BiMM7hfOxIYVSCS2jaRnF1skWxx4/wGzWlIU5dKgdEV2zTtQnxx7y3uN9VGS8m8DXJ+1g+DF53ubzm+fGn2/O5Z2PP6o9ONeleNCeQBX5m2g8noClQMh1zsAYLizCd46f5cx8gWnNMFxe4vBUyq8d2cUXdrWZzmsaVAAJAUzD/oyejMlygmp6eNeyn+PB5YbR7yoiEMe3izSXbZ3ccR5bVGiTxc9xAa80Sqd4pSiDxyWwUsDL52/x/XMXuF2BbrdIq4o9ExlfPryJx7fBREMbaSlQOd6ARUh0c8Ft2KdlAcFLgleMKMvBR4/aiEeryM8PHpxoBhgWPbx9dZX/ePws791YoWxtIeiA8wOyXGOrkqosMEqhlRC8H4U4lpf79EyXhasLTE5N07u2AKIoiopWu4Mi4Jy95zE3HXe01qOwCQGUjt6utgPafoAJ5SjWjNKgDbm3JNWQrYmQaeEXntpPJlCtDpAsASN4HbCEujjr/rOEIQTKsmQ4HJIkCXmeE0JYB9SfJEB773F1IVjz+cYYiqLAGDN6XkRwzmGMGb0nSZKPdSwPEEAT+cnKY3TMmMdcNPRVzgqGd2/Dd05c5/zcACSlqwLdNPDsvi08d2ALW1WBrzRh7IdpoDhIw0iNgBwjEpGn4RAUYzPreKav4TyPKPy1N6QUSbsNVSBYj6Q52hiGITB0jkorFgKcXOrx1sI8q14jhaOav8mRPTv4pUcP8MxOmAFgCDV7wCozikE21Ysbi8xP15yArX9uI5AYhaIuVgmR6llJwsBrSgVn5yw/ePMMlxZLQnuWub4l+CGTXcFWJdZWeGfxoaauiZAYgzGmplcHstTQW14kiKLdbZEkCUVRkGhNZu592ZvcRI/QeSweuUMnXHRGkrdZWJxDOm1am2YovWWx3yPpF3QIzGhDd6JLKjEPqIKMxBVKPEM8+Sg+fX8mIuR5TpqmlGVJWUat809anqAsS1ZWVrDWsnXrViBODr1ej1arRZ7niAiDwQDvPe12G6UU1lqstbRaLay1I92bj2IPDEB7EawxaKNJ6TP0q6BShDaLGM4vwfdPzfHy+Xm8SbD9Jaayiq8+dYAvHd7O5pS4rFQaGwPMNTTHdVoYAXWTGoQGfZvESeNFaxFGTOg6g+hq5nRTzOu9p1jto8VgTIZgKIKiDwy1xgInVlf55rmT3JgbUgwSpivhYHuaX9i1mxe2JmwHFCsUegVLC0t75K8Yok6IDqPD3LBPwZqglYNRh3VFiMyOEHnKFkOhcwbA1QH8xQ/f5uyNJfqqy6ot6LQm2dLOYOEiGRVGK7SOCUNfWpyNqzGjNWp5meVr19k79SS9QR9EkYYBojS2cviBjSu/e5gxJoJz7Wk3gNJotJRimC8gdCeplOH2wgolFZLApok2LcmY6eTMTk+SEiMaemyXFYGCyOr4JEq9V1dXybIMYwwhBKy1iAhVVY082k/CkiRhcnIS5xzee/r9PsPhkOnp6ZG3rFQUHmvUIZvHDff842qrP1AA7YwBLAbwlcOlilIyLq3C984u8fqlORYko4Nj0jge2TrJC4e2s7sLob8COuCVoRpTNVrfnjVWVd2NstZwnD2x9VTiIjY7ondl6+y6rr1tjWCSFknajktUDwOJug4LwPn5RV4+f5m3ewskISUdOnZmE/yjJx/nmf0p0x5MOY9PSoZSYEmp6mWlqY9WNeixAc6fqgXixB3n4rpPpY8l2FYMVuWsAPMBvvG9E5y51aOQWFQy283YvXc7nz+as10dILWQJpAYoC549d4T6rjyqVOn+NtXhvzT3/4KykBlARXvta5XSx/CslMCLkbsRkk/QvwM56Bv4IaAnYK3L8HrJy+xuDpH0A5jB3Qzw54dW5idTCPAVG40xuJkpeoyrnH1mb+7tVotiqKIK4QkIU1TgBFIr6ysMDk5+YmEORqPuNfrMTExQavVQmvNysoKWRYL3rTWo4RtkiSjCaI5vo0Qx10sRopDzXDLMVnOChkXVhyvX1zi+JU55suSrN2l7Yc8e3AvX3x0B5tbcYkm7S6r3uKVWVdA0nx6E4kev29sreyAtQKF1EQ9DQEbo864MbRUWlCJYAMMSugHKBNYBc4sFrx88hxv3biF0ykdgW0txZM7Z3j2QMquFjhbYFJFIQkVgo8s1FHxlmk41RsI/albMya0EItWfCSgeZ1Rqeg5X6vgO69d552rSyyVilam6RrHkb1dPn8sZ3sWw1XeOZQCI4rgHUYpzEijI7B8cQVZOsuB6bgeG3hLqgxD7xFRH6m8uqlyHR8Zjii4RAis6MhL+vF1uHr2JuXCbVLXRxvLtnbCMwd28+LDe5nWoFwAX9YXRczJRO6U+cRGXdMzM0kiqfoHP/gB3/jGN5iYmIjxcyI43q9579Fa0263R6EOiIBcVRVZlpFlGSJCURQ452i321RVlBVWSrGwsMDv//7v89BDD32kfT5AAO0RLIW1GNPGArcG8Ma5FV6/cIurg+hl56HP7i0dnj64g4MzwMAxcA6dpQxrcK7zPWOfXXtH9VJOh/UXgRdwdbFV7dCQRpkCLGtFWD6WMpAEIfGQ6+i1WA2k0ANOL8AbF6/xzu0lFgtPyBQtBY8f2M7nHt7PthyM9Rhdl7ET36xIEBSGQILUS847hTA37NOyCNAe5WsNcFF4lbEKXK/gBydWeO3cbeZsispTjPQ5snuGX3hkK4czyKlo4bChTyqmTktXGDRCoNdbpqoq8nKOzemQCZZYXO4xWF1lescuMgko0aM09L1MjzRiYmakSXipUcVph2IA7524ztzVi7SVB1/QTTVP7NjKM/t3s11DG9ChAOwoOR7QaNRoFfdJWZPQFBFWVlbw3vPlL38ZrTWDwWAEnPdjIQSqqhrFk3u9Hp1OZxRKaUIaTcw5yzKUUvT7/dHrX//61z9Wqf0DA9AKS+JWsT5l4OFGAT+5Am9cqrg0X+Ayw3QrsGvG8Nmje9i3LUKXyTUVmiXi/wnRw2iG+Hj4VhQjYTEZ2yCo9V50ICrRCbGgyo5KDWqgl7istL6uOEsjkF9fhjfPX+OtKze4WQYyWmy2OYdn2jxxeCfbtwhlKJGyT5bkWGtQIaWlzSgxGaldfkQmWSNVbwD0p2F1bhqjaplRb+NASVIKhKuL8JMbQ3743hVuDjWmPYNWgX1bOjz38HaOzARmywtoyaiki3IZiclRgA0FOmiKYsjNq4tcv36dq1evk6oul87f5MLFS7S7XWYmd5DlOVqn9a99b4COFMAmUOcRibAqKByO3tBz6p0bLFy/iBmu0M4TJlLDge1beG7fbva1FMZZUh1QoeGjSs1iiV58E9z4JEZdw6hoaHYhBCYmJnjhhRdG7Iom/HC/+zl16hSvvPIKX/ziF9m1axda61HooonVNwA8GAy4desWO3fuHHn3f/Inf4L/GLo3DwxA4yuk6pOnbeYdvHkR/vZcxZnlFkMzCapPpgZszS1tt8jc5cDNlT7t7iSVCLfKVXxmaEsg9bXwf4gxZxUEHQTjFMYLJjQeaiBIwCpPpQNWBSodkKAwXoMXKuWxUnOgJZB5ReYUiTcYp3HBUOqMZVGcXF7k1I15rg8sizplv855bHI7xw5uZv/WDMsKpayiMlBkiLRIfFTQi1eDxPinqmpc1iB6A5s/RYurK4cKEsMbrsSrBIWwWsLZG0u8cuIaN4YJKzojQ9i7ZZonH+1wZAds9ddI3WVQm9FqkoIWCsFZsIXGpCkmKLAZVy7c4t13z1JVFd/51veZX1jgy1/5Kjq0MGR4G39y9SG/97j2uKq9aSHS6G/fWuSdK7d498QFxBuyapWOSji6aw/HDuxn/1RO1zoyX5BIQMRFcXQE59bo1LpxYj4BokWTnAshjMCv8Wa9958IOEMMcVy7do2XX36ZAwcOYIzhtdde48UXX2R2dnZE92ti0MePH+eVV17h937v99Bak6Ypg8Fgw4O+uyU41capjP4KXL50natX5ymTCaSr6KO4XgXUYkGvf55uf4AUJXmrS6EU895SZgmZ96TjPNIgawJeNRjquvpvxOzQELRQBUcVoshMN8kZrvZRWYKTgA0xBq3RGNEoHyN1zoEVTSHCknMs2gqHoaUUO6cneerQTh7aJWTAMGRoSQFFgUEld/NS0vrGqCgRH1cGRqK351gLy1jWVPckQC6xgrIWLKMiahhnhk982frTN8caXKl6KbRGlWy0xNdKjJqiDhnF+4UYugriKIPgVc4wnWTJwZu3Ld+/tMh7C6uE9hRdhmzNLF/Yt4Wnt8M2HMaloHaDmcCoFj40niggmiCCyRO2bNtJe2Ka+aUeg8GAleHbbNmyha1bt9FqZRgNwyKKFmmzJj8QWOv0EzXz1lZ7CQFNRUnKALg+gFcvrPCT87e4MehjWjkTLc2BTbM8s38fj21p0fKQlI48z8BXa44BglcxQarRcfwEau7/XdejMaHoXPTlVWQ2KRHKsmJxcYFNmzahRZGEKFZWGmFoBJ8ocmVQA0f/9jzfe+Vvmdi9ndu9JZQLHDlwiD2bt3P13AXeu34Zs2mS7bObOLJ7L2/86Ef0+iu0um0efexRJqYmuT13m9OnT3Hz5i1Onz5Dr9ejKC3vnDzNH/8/f8qRJ45husLxHx/n9vUrdNMEYww/fPWHfPvb32bfvgMce+YZDjz0UNREkY8+Kz0wAO1VgjUTlEBv1THoz2PLBbwJlKpNX2uGPqUYlCz0hkyXFVkQfL/Pigsspymum5M6QVf1gGrkHkNNn2naRHmP1jEpZ72LnojR+KBw1pMITOUwd7NHd2qKMvgIhEoRVKOf61A6Fg2IuJrm5GNXjCRhKmuxbarNTF6xPGdZ1aCVsCDUFK4yUmxFjcXe3p/eVCGgy5IWQiYJqoIiBCpRVKlmaAI2xGSUqio6TmjZgHghMynSSaEVL+4J0zQS+3kxT6CMUNvIaY5pwAbASagV4qiZ9SDoyJapJ7EgQmlLSi+QdpgTeHMOvnPyOm/cHGDb04gb8tDmNl/YP82Lu4XdyjPhVsFn4NogGYiga3qnMZEO1wjnT22aZP/Bh9n0k7c5d+4sOs34zDPH2LJtW3RgQ9TyqL9WPLZQxVi4aKqxyTh+N4vzfZIwxOsplqqMd66v8MOrJVeHKWWa0lEV+3fs5MVDRzi6Y4KtASiohZNUTRuJEk2WUMvpWhQOg4reQCN9APG+bv8Vj0GorI2a7UFROUuiDav9Pq+/cZxNmzaxffMWtk5MYDptQtvQRxj6Cj8sYejon7/B//I//k+88Lu/yYoOLFy9wVMHH+GXj32eH37rr/i3P/oeh3/pczz/6GNwe5W/+sa3CUboVwO8q9i5bzc/eu1Vjv/4OMNhyc0bt1hcXEJrw/JqQb8M9J3ir195g7/5/g8wZZ8tnZQsy1lc7DEclLxz4l327zvA3r0eW7l13c4+zB4YgA5BCN7UZd2ePHV0zJBBNYcZ9JFEk4mjYxSJh3Zq0EGxMiypvI+hjNKT2IrcxnZFd5Z0NhxH5xypxMRKURZUVRWzv1mG1hoTPHb+NmZlmcQovHOkaYbJcypnKb3DI2R5TogClTFM4T3iPYl15EWgd3WBV66+QyKxakqJjCaN5ng+rBGsAC2l0d7jrcNbS0XAKcFpTaUUDoVJMxSKcmWVTBTaeWY7HY4+8jD7pmZZWS2YmPhklpI/KxY9ycYbHkukjs3PCoenAnxNjzRoUaMYrq63rwqHz7usiuK9xcBL5y5x+vZtTN7FVAVTuuLZnZt5buXGa3oAACAASURBVPcEe1LIqipOBklK0FDaIalktcbLOL2TkYe6bdskDz+8h0uXTpJngccee4hWCyQ4QvAYo5CgGx39GAuvP1BYy6/Y4DAiDKww9CkrIePk1WVeevMMVxaFUhv6w4Ld2zazf/9etmybQKnYLEJVjtRbELCJpwyeUgecasKBDu0F42W0KmtchlB/j/Hv5n2s9/VVhfcek8VfYnlhgT//5p/x1GOPc/Shg+zasQO3Y5pycxfnPVrF6kbxYMuKxx5/jC/+5j/mzVde4//7o3/DjnSKlaUes7Oz/PKv/Ap7Zzbxp//bv+Rzzz3PF776Jf7dn/0pb771Fu+eOcmpM6c49uwxfvVXfo1vfesv+NrX/ojEJLRyRZIkzM8t8H9+7f/i13791/mtX/oym1uGpaVlvv3tb3H1ylX+yT/5T9mxcwfeezqdzsfiZT8wAK2ARMXl3OREwu4dMyz6Id3+kJIBFYJYi6o8wTpWez0GQTGxaTvdtMXCsKIoK7Yox+YEaKqq4kgHwlp/TDFAwDuHzxXSytHaoJSKA64suDV/nf6N63RDycGdu0jaLYbWxRJuLZTWkvhIDVpbLjsIHu2EtKpIyj5L1XJkqNwBxN77UbnrvbPXQqITnHMUYYhTFtECKhAqDcHgJWNlSUg6k0gr48atG4R+j8cn97K34/AKpn7OwBmalGpMjiGq5rgzwmkJDiNRLiC4CtGQkqFwEDTBCoiBoqSbTNBXwtmVwEunz/DyuUtIkmMITGD57J5dvLBjgoM5zFiwpYA2kApDVeJCQTpSSVyzNc69sHlTxpGHd/H2W122beuyf99mFH18cHWOWBCfRa9cCV70qG9mBOjYaMKJJ6DQ6QQ9B6euD3npxGXO3+phs1kGxSqbNm1m+/ZttCe6LK1aipVVWqt9UnHkyuO0ZygllfZUtRqpBIndVzwYL3Vcfv23GT/7EiAxBmcriuEQrRV5GhOdBw/s46Xvf5fjb7zGiddeZ9PsLNNHH2Lf55/GWovSGoYDeqsrKKU4fPgQWimef+55vv1vv8Hc/DwuBHbu3MmePXuYv3SZE++c4B995Sss93ps3rqVV46/ShUsBw4e4NChQ+StFtu2bmXL5s0URcHc7UW8dVy6cJFWlrF/317yNMW5iqmpSfK8xe3bt8nznG4nB6Lz9nGKVR4YgPYO+v0ALWG2Ay88tZsnntpNSYzIZtTxVB9zGnPxGsMAx6/CD15+Hesd//j5z/DcgTaNs9p4NI0F4nvKevWW6jVead2dDV/AH/3hH3NxwbN3MuU3f+nzbN3RYrEfr+d2Gouz5Y4bsNZ8dr0z975jaOKIH1UvzLrYbTwKSUYCYGSXJDhgzsYvdr4HL736Gm0/4OjRg2yb7KBX52h3plCfUOHBz4pFdZQaoFFRpyq+wNoZdnUTWFvH5eO2rhyC12jTpglYLwzg1XfO8Pa5C5CmVIMldk1PcWCqxa89sZv9KcxaoIKEWFUSsFHxLondVpoQy/vm3ACZSdm7YycvPPMs09PTJKJxlcUYA6Jww4JAhSgNkozCGbHc3yMxPoENQj9o+spwahH+5q3zvH15AdWaIkXIs5TWcIn+xaucunyTc8urmF6PrrXkRjDiKKmojKNSAavrlUidUDe1B+1Zr4vd2LiEqgIkeIzRKIHV5R6J1kxNTdDKsxhHLx1z8wtcPXGCXkcjN5YJ1kK7Rd5pI0aR5zneWZaWVllZ7WG27CJkCf1Bj+XFBYaDASfefZf//Q//Fat2wMzWWdpTHTqtCfqDAf3hEKUUg36f5aUlZqamuXVrAQmBVpZRDvosLyxgNIiPVL8QHO12axQJFQEfPozkuN4eGIBWCtotoVQRKNtAC7A4jK1Iy0BQGS4oFgN00gjY712zvPaDl8mKwC8//1me2ZOxKbw/+TbqPgQ4C12J1V4CFBbK0tNJFEpDb7nH1TdfoVha4sLcZXpPHebQpmdpm3j9xXrH9YUvo0idrD3//ojy2nNNSFypewO0UDcPcHXCS4NQ4cMQW2m8j0vaVgKXl+H1b7/KYHWZ5586zGPT29gnjkldQVlAktP01/t5sFoVhSZhtb7wsv4vuAggI+R24FzMQ6i6dC9Pub1Y8NK7Zzh9awlUQqhKtuWaPUnB7774DEfbkPc9DGtlq1xAKSRUGBmiycAl4O9yyY65odsmtvGFY18kz3NYVeh8IpaqiqDFxG21i82QRaF9XVEqLuYuVMB6weo2p1fgm29e4K0LtwnpFLkX0mrILz77JC88mjEFtB20bbxPG8SvCpxYdDfFarAqgrGuATqpOyGXBgZmfeu3GPaolfpCQNediZytqIoiTpIh8P3vf4/F+XmM0uzftZenjz3L3mefIN+9lVe++Zecvvo6VCWlr1hZXeGN11/nl/fv5ezZM8zMzrB1xzauLvRIfcJkt4seFjz59FP8Z//8n/HY00+QtjOsOP7iO3/BSy+/xO25eYqiYHVllbIombt1i3YrJ0sMe3btwJUlvYUFqrJiciJBqQ6Tk5Ns2rSJpaUldu7cQWUdtqoI9wxCr3e5HhiArvMPOEdkUhhHhsNQkqs6myMa71NQEVwvD+HE6z9EF6s8feQoD2/O2JzCtKz72Pf9U1BitEGjqLyFqqSlFUYbbt28xd9+96+ZkIJNs22WV1Y49+YPObRrE7v37sMGqFwgqwsDGnBtkpBKmnLdeCGLktHEcOc9xOvxXhGOphWYRLoBeEcIUcsgmJwKE/U/BvDOjy6TDiyfe/Qpnj+4mT0t6A4rGKyAMjCZ/Tw50Ix/mQAjUcIRQIdQVwV61txrYjgkSUClOGVYLOF7Zy9z4toiNwaWga/oZIaduearTx7hoXZGNhzET84zakGX2n80dZJSQYgMnffZ+O+dGTZv60SPuSzRweAGJdroOKi1xaki5idCLK4ateeuPQCvJ7hUWP7qrQu8fmWRkE+Q6hxT9nn20D4+fzhji6qBGcgaxa0YiofMoJMUEon878abuaOdd2rqOYf1K0XVRPwD4B1KIE1yWlmKqypu3bzJjevX+epXvsrjjz3Gru276E5MMugYlgg4axElkKWYLKP0lv/w5/+BP/vud7CrBb/0hS/xyNFHWLp8nXxliKsqDh06xD//F/+Cf/mH/4r2n3ZZWl3mN3/nt3j2+WeZW5jn61//Ov/m//46ygsz01NMTU4ivVUWbt9mot3iv/ov/wv+j3/9Nf7fr/9rDuzewee/8Hl27dzFzMwMf/AHf8Bv/Mav81u//VuRBviBIY5xl+sBA+ggdRwMMKFAU5FQkWIhmAgwEpexOLh0aZW/ef11bl66wNOfeYrnH9nLlm50bISaB71+D/XfgEkC3g+jBxY8Jgloo3B2yNz8Nc6cfYcdu7dw9eIFtu6YZXHpNlevXWDL9k2YNIuegzL1gK3j2+LqvnX1nrWPPW+dGcuycOcDRhmge5ivs1niA1Q1rSnJccrQA64sw1+8fJx3Tl/kiUce45mDm9nWiRcnmniFpvm9Z4J/gNasXprH615oAM3Hib1ZQlUhVggGlTH0MDeE71+4zQ8XLZeGmhWX0hbPjvYEX3zkAEe25GigHzStRBOMYIlOrxdIaGF8gg0KMWptgghj88EdRx0SjffgVEaSwGoZOcKZpu5LqDDiSbwGF2JFFApURqETLpbwN6eu8Mal6/SSLpvaGW1reXzbJn71qc3syWKVa6IhaWJ3FUAZ6SGJggSCuLqCNo5kLfEmItBI8oZxcB7rsRiall5QFWWszEuzUa7l2eeeZ+euXUx0JxAfsM4yHAyRbko7b5NmGVQlK+WAvNvmd37nd9iydzfdtMWuzdvYkk+wc2YTtynpbt1KagzPvvAcM7NTlMHixbNz7y6yds4vfuUrPPvsMXRQiPN4C4ceOkx/UPK//sH/zP6HDrCzKPlv/5v/Gl/0aWea6ekZTGL4Z//5P8UYw6bZWQb9QV3vMP573Tvg8eAANFH3QulADpi60wW+qtf2CmzFijMMHJw7fZ5bl67yzMOHee7Rg2xuBboSSEeM0XHvapwJGz0AG0qURK/Z4bF2QFlVtDopjz72ME8+coQ//trX+PIvfolhUZFmmuFwlZYRjDYEKqJ0khDweF/FQaya3hSuXtnWkL3ObWbs+D4k4iWBoDxeCYY6pS4aJGU1wLmlAScuXeO9a+d59KlH+Mzhg+ychCyA2Ng+zJqE4DzZzxc+03RjD2Nea6S1ReCI50rFxAGKwnmKoPEqxyPMV3BqueB71xZ5u1DYkJJ7YfeWTXzx4T08vRNmQl03lKcsh8AgREciqVdKwYOyhmCiUNbI22wSlbwfqD2x2Y5JYeBAOgbvYajWvpUAKS56zx5AUynDksDL713npdPXmPMamxnKcpX9E11efGQ3hybADEES0Aljnehtzd0DlKXCE4yuVRoBAkELQceCLqkjOUldpNVwN0QCKgRG9A4RkiTyY0JwaJMyPTvL9OxmdF0+rRSkxpDWKtMS6nL2xKBrL/rAgf08dPRRTBCyOgw3sXMb7QSKtoCFVifn8c88iSU23bXBgoKdnV34bVsRB7lJ8ZVHYWi3u7TabVIjIBmPPry31luJCyofYHJiAqWFqizRxpCl6T1pr3faAwPQnkAVKpwr6BhIEIJXBJ8QTBsvbfrBcH0R3jl1kYuXbrB3+y4++/jj7NnUxlBhKBAM/i5s37Dur6B0RiOhpIga0qkkbN22k+6LXbZOT5O3J9i1Zz+d7iQmzchbXZRKWOtvspYqEamTRKMBr6g0kdnB+3zmteMKDTd37FUZh++Ap8JhKYmVaZWJhQmXVj2vX7zEW6dOsffwHh55dC/bZyEnRliGUsV5jRZaAqZOE/68WGTk1sJGYzS7IJG2KaIIKsE7SxUMlTL0nGCJXvCPLi7yk6u3ODO/yJwTtqmSh2e6vLC7ywtbYKcBU8UWVJIIViqiWrciJY1ynAGSMKLb1wA91pNwXX+gJjchtV6cQVSICiyq5hUTcKRAwIYq8qPTjKGG831465rntUsrXFvWeByziePIbJvP7t3Ew9uhpQE9AGmSp0REMnXsQkVeuJM4stw6/7hOq2qPFiFIdL+bRHYTOvLORi1nH/VkUBqT1gkarclaHYII1vqaBhmb4+Z1xWJVlgyGQ0gTduzdzX/3P/z37Nm9myw1iAtrKo5JLNox1KmTOtRnpG4l4KNDZBCcASUBpWIBWC09SZYY6gZKNe0yfhHnPK4urHHOoY0hTQ2VLesY9N2yR++3BwagAw4nBcpYCAFXWZQ2BGVYkTarGOZKeOvqHOev3CTLJ3j66BH2b+mQefCsoFWJ0CHQ+pB9MYKq5rRrMWgNiW4xkU+CLxkUjqASNm3ZhtIJSkzTtQ0ZDddoapR8W0tXWXz0VO4xC3vx6wBa3vfI4eih8DjVpgpplDQN8MbVmxy/chXptnj4iUNsmsxoEelYXlU4FShIGJDREk8X+bkCaIKPXbkloAl4GTWZwktNfhSNdcIwGKqgGAgsObjRh1cvzHH88nVud1JsqtjSTnhu5xQv7OrykAb6HlyFaSkKbwmqIqEkYEkwpN5gXAtsHfaiAOXWpu3gRwAt+JopIIjSqODxTpHrBEdJnNgVFWnNrJcoQ5DEY75ewqs3Aj84c5OL/YyBmqXDCgcmu7x4aDPP7+qy1Vi0WwGpwLTHUC3UMfNYrNPATyzgiU5KE4KGeiyqOPlJiEkzFzxaalD2noiCa140omPXFhGCCD4ARsWJy+l4HkKMd6cmIUkTcJb2zDS/8bv/CcFETFW6pvY5ml5coxVJsygasVtUEjnY9WOjpA5pMRLkMVlkAtTqr7EHQ4g17SIgSlBBEULUj456HbAekN8XoxzZAwPQTT7eELsp2yBYZwhphx6K6x7ePnudN0+eY1tnisd27eXw/i7dhEiSpyIoV1OS7g+GFAElGYPlIcYZ0pAiTkOdFBz/dHnf47VFbVDyIfAc/ffxLca1qoWoO00RyJQwMCkFCctDOHejz4WTF+gOAy8+/QRHO1PMAp16JRGJAQkZOoqy/5x5z2vWgES8dNcW4zAKF6iUEGLJe6Xg+gL86Mxtzs/36TlDEhJ2d7oc2drl0J7NzMwkYMGXnsoYVK4ZSoIlrddbJQGFUyqGj3TdcELlo6NqRLUkuBFAIzVAo3Fqzetv6J3j4DMEKp0z1HArwE8WLS9dm+ft+RWGlSLVKfunN/Pszi08tiNlSwKWigWJ7bBylaC8roE5rPv8ddK6Yx70uK8fz2AS24FJlGDVEkMcSVqf3xAlUmW05Av1ik/qVUwEVt/sJUBwMfQ3v7jIN7/15+A8WbtFKSFiax2F0V7QPlJLqzo3pXycaCLJJG4fJFbbSoDES4zieFChLkWnlkUQqbE71j9AiPRGYjVwZSuM0fQHq+8fX/ewBwqgFR6HI6OFytosDSpsUMwLvHWtx/FzF+n7wNN79/LwQ10m0xgfzBQYbSjCEHy4/5NWlwy3kzZJSBCr66UcI2513O6O+/hFRmZE4eXO0oU7drXu7Xe2EhBSBC05rPZJOhoS4erlZV7/8WnK5YLnH36E57dtYQegrIXQB7saNT/S2L08dXWsNP27n5KfWRuxG2IiLZ7PNYB2fi1s7z0s9eHdi4v86J2z3HIG1Z0loWR3Z5J9W2ZoZ4HF1R6h6qN0TqVaDHqOkBhEPGmwJKGoizqgUJqhdEZzhGqSak24F6kTa006mViYonRsUlGjYXOviGy6QsClgaVEONf3/PD2Aj9eHnDDG5IKDk1t4sm9bY7tgO1ZbPpaUFEqTUpGQJN4PWK2NF2Dmsd3RlfXORr1d4ha6LXLo2IbOlPP8t6X8VpTRM+VOg87NhmE+gs771BaoZVGWcfk5ATdyQnePPE2VVmSZhmWKFzWnLvIyY56MxG4w2jmqFmAYwAdX18P0PW5rrdvgDo1Cc5ayqpE6+jhex/7Ek7PTPHQQw/Rbjcr8Lt50evtgQFohWBQWBcYIjjRuNzQ83Du+jInTpzEFwOePnKEh3Z1mcriSs5ZT5qCJkV8hjRUkPs173niicfpdDvjaexoH547AOJAy2S9h3w3u9frKkS9aCuBZa84f2uZn5x8h1tzCxw78gjPPbWDCanpWHWbpujFxM80xBLhxjv5RM7Nz5TV2siyFkxY5xfWndcTAVvAxQvznDl9joWlRfqmQ3tiCiMp3na4vAgrC8v41XlSNyDLu3jVZjD0aJWiQyANBcaXBAkE8Qz1kIHuQdDoGrRj6b9HYcfCHB4lsVK1rCxZq41HUToQk+JqXZa2h6Sw9KWgTBy9JOHy0HJmrs/iqkLrnNmZFnt3tdm6PSaBryxF5hO5ocoybOXJXPRA1wFy4/gycniB9cN6/N6FWBhmREiV4MuCTAVaRtDOMd3OyXVs7rw+Tu1Hq79AIM0SxEetZo3w2eee59lnjtHKc0Riuyml1VoMg/XDNDRjN6xNNOPSwFLv24TRQmr83TD2HkFiBbH3aK3Guo1HdT1REiUZ7hHWGLcHBqAlCMZpjGlxdb6HTQXpZlyaL3jt+E+YX1jg2NGjvHB0O10LlJClscGntxaHItdTGJUw6rp6P2YUX/rFLzE5PVkTRWtrRsY4YI++xB3/1+1Z7tZi6+5vC3eMhwCiWakcrjPLhcUlvnf8x1y4cpODhx/jmWf208lACtZGqUrq1UgSxZ2IxTD6bsf7D97UyN1rwHnt9NWF4DpS1SorDJaHXD53lt7iPNu3bsaXAWUSxOVcvlJw+cptYAUXhlg/wPsVICNVLVKfYZwi8R4dPE45rLYMTcnQ9EZ8dRUCKsSmUTo4FLFQRvCjdkz9QcHk9DRBDIPSYtIWlQ9oFFNlwXQxZJgoCqNY1YZl0QxJ0DqjnWhyVbK0cIvjK47TVQ9rV0mMQ7Uz+v8/eW/6JNeVnvn9znbvzaWyVhSAwr6T4NIkm81eqaa6tYZGY6snZNnS9IQ/WI5whL/pD3DYYYe/2TNhRbSWD5YVMaHxWHJorFFLnpG7m6Ja3WzuIEFiIXYUCoWlUEtudznn+MM5NzMBgks3KTfoOYhCVlVmZd68ee573vO8z/s83rHZ69PIQofkvdmyQIyy/1G2Gu+tM9I60zYqJdUZyjkS4Si21mkqx2zTMNdMOH5wL4tTSTCYwBG4MuMSfb1UOicQXlLkBd5a0kZGo9nE+ZBK9Id9Wo3mqKrj75mnog64bpw5T37V2bKIGfQ4hQ8R2wk/yrolEqUkWimcD/NDa42Qgn6vizEGY/R95Bf+A8+ghZOoSuGFptGeZZjAchd+9MYJVq9d49ihQ3z28D52KEgFNLDBlEcAUiG9RvhYtZY/hhzVfYejcgXzu7ZRFhUVJVqG6TcKhHDXij+xq47j3js+wpjMcOOfOyGpWg0udh0vnjzD8vIqB/bs4UtPPsx8Br0hZBlU1qHlmFKmvMQ7gfUOL+RdfRr//xmhGhSSpjHeX2esNV8XL0ikQdmC4dYdhlt3kK0pqrxAKkNqG4hC0BMFufH4LIN2CyUVwgqKUlH0BMqb0TyrKONXTuVzQCK8Rvogmy+9Q/oqSnfGsp8T5KVjc+jAJzgUvcqTJgmF90ghKaVjmDicbpCLhLwSVFLTMJpUBQcUWfa5ebvPbVtisAih8M5jbR8hNNJoCtcNTA0xOa1EhANEXEzCghKGH8EJNuK7zmnKUqJcRdsoyu4aLVEypR0LDY1KMsyhfcwkkoT4voEgTOVHl8ed9S7NVod2ux24bRKsd1TOIaSg2WoFo+aJ1H4SC5/M9lXU17mLxhihoaAKKMbBmRCghfDIuCLZosK6oIVTu3sbY5iZmcYkCUbr+xQJ33/8BxOg8RIKRb9fYOYSblTwwkuvcuHqVY7u28uzjz/C/rYmGwzoNDRQ4KylsApjWmgPZQFOe1DlxzsUPAM7JCWlNCEDUtKhRkS1+4U6zyQCFybX+N9HG1GjOs4N7wM3dtnD35w8zdWrqxzdd5hnnnicna3wfpUsKTF45UkQJE6HhhYfmFWltJTKo7xEi49+JJ+OES7fyYKXj7yEsBuxcX8s0MIw3dDs37nAyrBgZbiJ8YKEIY3eOm0Ug3aTzUzTl5aBK3HW4odDXM8y39iGlALrUywpSoWokMg+UnbxPsOKNARpXMyiFcpbRMyoAbwrUJUjIzCUSiwNlaC8A6WpUsma1Hg7hbMtlJAkFZh+D2PXEWxQiS6VzqnSFq7RBptRDiQy98yoJlOmSZlvUInqnvrGWA8dFzLTmhZYw2KVDEU9KyBXKQNhEK5CNlOQDUo/YDPfhKKgR0ouQ1tYbd7mo/5JXW4USGZnZ0BoBr0Beb+Hk4Kk2SBtZFTWopTGurpvALzw9eYzHq9HeIG346w5LCZipGfjYjw2Iz3W8CbD431cdDxSKowO7ilJkkQjgTh7hKAsC7QxH2qaUI8HPkDXkI8n5DKi7mOvizeiLv/Va3hMQEcJZry8hAalSRtwow8vvvkOV69eZt/SDj7/+CPsn89oe2hqD3kXpEWaFCMUeV6gfIKOwvuWj5dBezyJSdkqejSSBlroWBG2BB2x91PPGEnCE9on6h5biNT80bStK+Z1hV/Gr1ABV1QorIA+8OLJC5xbucbStnkeOXaEnbMKVYIUltQYBm5IUwb6nbCexIkRrqFUyIbCEb1fgP5o2UIYD06IrwX53SibquWTXAyIkRJWeSoBzWbKs198kgNPPMmVXk4/TdEaFkqQWxU3jGZjCm47OLnS5cK5M1S+Yn5+CtfdRFcDnO/jSfC2AFmg2UCLDRwNKl/hvZnAoO0Ig5Y+qBf63iaDrU1agw5CGVy/T0s7itKBVpSppydyfFGinWVKZLS8QFc9UruJUlvkqk+VOLrasGF7UDpSNUW7kdIYOspbt2klQYDfSRuonDGxlF6hXHQWcqC8Q3gLwsWuQk8lJVZIfJYwSNoMe126JcjCo2XQ65BS05maJtOTJZpxFSB8QOGmqkqkUjQaoR28sBUVHuscvUEf055GSjXiM01uIqXwI/x5pLwiQAgRArSIkI2oNUuYyJ5lmAciFCDB40uH9QEDtdaSJAmVrUDowOrwivegG3cd1d3jgQ/QDujjsEDLl5iyCGpELvjIe2MoVYoloV9YMqHIJFB5pCsQqcPLkh4J/SSjUvDKiTOceftN9m1f4MlHjnBwcYqGACVsYFO4JHJ2FFIoUiNHmhbhVH58QpkHppM2kgnCP+/lWbx3jLEO6eREU2PYU3opKETIMUIvYoWhRFMiqyGQ0i8VVTJFT8HfnbjFqZNvs7TQ4MmH97NjRzssiL4i1TJoBEsT8T+BV1AqDyJOwljBlvHf3cI3dxdCfFVhY0V7NGQs/USKU82UeBBGJaCIEp/Kh2CosGHbXm/dlaKSktwrrFQ0JexPYft0SulBOZgTgTVxqwF3mnDiJlS3hqS2QbvdwPXXObC9zfFdixzcNs+UEviqRHkXMmkclZMIldHrD2k1G8G3UsKgP0AARiuUkpw6dZoXXniB//I//gpewO21DZrNFpW16DQBDaWw4HSgjvlQ/FJuO8pXSJFjZYVVnlJqcqERPnwZB9qGDaR24XqoDBQqJ5cVuXB4lyJ8QuIJ15QFaUu0tAglKa1j6DReaVYa8OJNeOnFDTI7YDr1sH6HvdMpz332MxyebTIFtAgsElUHUOQE8C3RSuLrlFQqtJIBckDQbrWAOmkZj3HQr7E5N4IuJSJ0AiLwfrRfqmW3J/4agjFz4MlLAMMowVJKIaXA6CTSH+snuXe8/4x/4AO0J8qAAk1cCMyuDF8ymCxZDFu2QCUJwkMxDMwCoRTelxRuSK5Sbks48c5l3jl7mrnpNo8f2s+hhWmmJCRUKDxeCISMXUs+5ONBCD+cROE94hNSbFM/dqC/58N1MTpOzhcRqsT1zsO5EkWOFBWQgzQkpkku4dRV+NGbF5hptXhk9zz7F6fpRPU7oQWpDAEaahdmOZrEjnGDe31kORAlyAAAIABJREFUk9Os/nkUpL1HSIEWsfDmPd6FHVGgIgW3GKUNMm4Rf9rDx3cpcSgRzHbHwkIxp5Ohx9TFhcUQpGunRThVxkO5scG0NnivuXTecfXCdfq3B/jCMhQlU9Lz6P5FHt3R4MhUyRwDZOUCK1q1sTQoLVSuREwnrK/f4tzZc8zMzXF0505arRYiWkJVpse7+Q0ebZVkiaFot1FKUVbBhUWKmoNyv0q3IPSJ3m+MH28qhckBDy6FoSnoUdHH4lB4ksDuKaFjQDsLVR9lDF5o+pWiV8HGJmyt9mjLAtFfZ7aVoJTlSw8d4sn925jPaoO2cgL3j/NwxOmQQRiJifknxrCfFnp03+QOb+KSGQff0V49ysvWDklMMFTeE1/rMB9LyBOvXRcC5YfiGe9//wMfoAWQ4FEE0jo6DV1G1sXsRSPQSFuQRe1li8cpgdearkvoO8hFwuUrtzjx+hv4Mufpx59i3759ZKmKp0eOAs5opfMyQiiTq+i9oeinN4T0YEY/EETYw48JoCPupdFYL7FOUMkmfZHw0ttX+dvX30VLzWcOH+TYzhnmTJOUgArJSpHIMEG8nTwDnpEJo/CjyesiMfduAoqYyFSiLk9V4b1HK41WEW+P7jPORX/zH0PQ/B9yKOFJ8NROKcA4g4qVpIBRypEbSf1epfMYIUBBP8ugmXLltuPty+dZvn4b6VNatqTV0Dx19Cif2bPAUhYagQwKJTVaSLwI8zOcqoDCthtN0iThxR/+AK01R44c4eDBg3SmOmRJwuzMNFKAdQ7vLEhBotUoi5vcsf0kI/pRjL7XpCSksesuxRMDqwRdWVIpQBr6lcSaBhsazmx4Xju3zMrlO6iyDNS6Kufpxx/hyP49TDWYOKeTHiuCMev7w+GwHw8wG316jD7jyU3g+z7ZKJ3/xAG6Bz5AS4JkvIorm1MaH9s9ray7dyDTBqoCIRTGCKwQDAQMVcJ6rli+fovX33gLW5Y8fOQIBw8cJIsmIIKQGJXOIZWKnF4Rg/P9PqMHAycV0iJFiRMaG6SORseocShfhiBSenpOUqoOPZdwZa3LS2dOc2PjBr/09a/z6J5Fdpig5ys9iNo9NLagCTf5fsXk/nA8pbUIhZX3HuVoYQvcXhUKPTK07la2Cu4vCAprsXnxoKx/AcYRFuGjVZQPmL9HRnwSHOGkyboDpKrAWhSCRGgqnXBbas5dX+Ot8yucvX6L/rBAipSOVhxZWODp/QssCNC9gqLqMqDAKE0hBKWryK3EO49StS+lo5ml3FxdZWVlheUrV7h4/jxLS0tsbm6SGkNqDM45hA/iQ1IGPrCQH2yB9tGGozIuNnBLJAmxMXv0+acE3Q6Zl2DLgMfIlC5wvg9/f+06715fRVQOXRW0teDA0iKffWwf25pgc4LIpJp0KLw3Sk4u/x9vhKA/SZ+KPJGYj73fK9ytFD55XJ/MeOADtACMc3jhcEKRCxWKDZGRFtq3IfHgbIk04JRiYB2lkAyAq3cKXn/zDLdWb/DIsSN89vHHmG1AMXQ4LRBaBHNWFyrdeJjMGe+9fTDCc4AZKlES9PX0aO1XgHI2YPVCMRg4tmSDKk24vFbx/ROnWFm/Q9qA68tneP3GJabL8P6F8yhfc25D8WnS4YKoPuZi1bouDhVKkSuFC3vou87e+AKrb30Uw/EUZYEQYlTxDjrAD8YZlj64mXgftu0Og8PgkREBc0CJkhYlHbgCWwXnAyUTpDD0dMpKu8OPVm5w9eoqw6GFwiKspzPTYc62WT9zFicK9HALbYc0NGhj8MCw8gyqsPVupCkCKIqc4XCIdwFyuXLpEqsr19mxYwfGGIqiwDuHkRKhzei8VjYshOLH8MS73/BUVAzi9ddEeINyYYH3ImzmtAdhh6DA9kusycgbmuUcfnRxlZeXV6mKAS0pSFXJjk6bZx49ws6pIGNb9HOkVCglRuixvysgj7Po+63nP8kM8vXC5cevMYI/6h3DewLAvQH6k527D3yABo+0oWJutSAXQUqxIGyBMgLOJytLogRWWCpvyWXKhoWVNcub766ycnOLg3v38eixI8y3Q6qn8egaJxIyYkVi4pXHt++Htf40h8VRUURTpBoOCoUpquDsEXD6lIFPWV6Hl04v88bFa+xaWmQ6GXL29Ct0aTFTafDBnFYSRfydA2ejdkidSvgRpOEmII5cSoYyVL3h/tO0zjaUEEgZOq68Dy7lzWaDZqNBK2uQqAdjWmpXol2BIwnykyJor9mIVwpRIRliZIEWFcLlQSwnqsgVtmTV5fxw5Q6v94ZQVGTCM504lhoZx5fmWGp48pULiCzBlzmVtwy1QhiLBXJrKbxHSYHynqIoUFLiKkfeH1DkOc1Gk23bFljauZOiKFhdvYErK0SaILzHliUojYrGwh8P4AguRCVdPJ4Eg7YGWYGqIiooQ3Fa2AGoANPkIuVGDieubPHKpRUu5CULONpVnz1zszx17CB75kPmLSpoGYnyVSBgSfee4FwbzN5vfJRr9N6/HD8/jAp5fnxz16uNgsH9IsQnOx6MK+GDhoeolRigCO5uwVQuvAmpFAjPoCwpkwSL5NqdTV578zzLK1327lziK597iIWpBJeHzLCTaTRgyxIlBInWEf8cB5lPanX+hxoBIfWRxK8iehZL7EJjVQpt6G7CK29f560z59ixY4lnv/A4u2cE+sufpSWbpCKN2auP7csilL2cxVmL1rHlGR+hCu7KoEMHmZrIft97lrwLn5ySEmeDquBUu4UgUKWUkiQi8FoeiGFLsMG10gsz1lyAkfqZBpQYBuBeWDwJJSlDDzc3QW/krP/gRxQIptuG7anikcVZvnBoD4/sWmRWgC6rsCjZiODHzoi68454jm1RUhYFUineefttWo0G2+bmOH78OI89/jhLO3dy8dIl/v7730fLqCAXMX9HMGD98ILVhw85wr8C6uwjW0W6iZilAGO40xuQzm5jE3jp1Bo/OHOZteEQrTWmytne1Dx5eDfPHJ5DVFANHMZXtDKNHQ5wCKRRIzh4vCd7/+B8v9t63Hs9j3+uHRAnnkkw7oisHyzu+ePRG/6HmbMPfoCeAO2lEKOfamgjpWYCS8qiYig9BYLVYY93Ll5geWWFuendPPXow+ye1SgPw3xIajSm9jwT0RrUR9DV1xVicddRjKu9D8YIqFmwRJLY0TmReJxUeGHY8rA2hDPXupy7skLWaLN/1x7urFxncGmV2baii6LSSQj11uKtR8tAX3LWUhQ5JonV8Mj3HIvJhCy6WUrahUS7MY7nw82o9O19qMJrJdna2qTVaPDYo8fJtGZYlmgrUCaJxqs//SFGdDqP9VFEh/F1KgEhhsAgdK8JTy4T+sDNIby1vMFrl28wVB0aLWjZLjtmU47u3s6BhRbNqou2JUmSQlWAMCA0RaRXCxmKgwJwZcGg12d6usPq6g3OnT3LZx5/nOMPP8z2HTvwLugPK4J/n1GKIi8Y9Ht0pjqomtr4CWB09fVX47axPj2RYcZzhqSnUtaBkzc9f3vqImdvbqI7LTpCsqvT4gtHlnji8C7aBJbJ+s1bbNs2h8ZGe7fJUHtPFv0Bb+XDfn+/QO3vud4/ePzDZc2T49MRoGPZOAge+Yh9eVI8uk4xqooKjUozNlzOiVNnOHfhEvMz83zukSMc2K5xeUUrFbRaDSSeshwiBKRKhUnlynBV4EdgmpiYIj7+96AE6SBNmdZlq6DLgMALSSESCgFdDycvDnnxjTfpDUoePXaQnVMN2sKzc343m3euQ2JwSQbeh2YIHKkxJInBWctQCIwxo8w5ZNGxgSMG6FQGZTztakwwAhpxK+p9CMxKKbY2NlheuU6rkXH48CFMW6OUwhiNFA9M/hwKmRhq/cLJZTuUC0sQJQiLE4pCKHokrAEXevDGap+XL9yiSBO0EWzrNDm2czsP7VpkZwMaDFBFCd6FZ9QGJ0Wwm4SR/6SPhcfO1BTOWnbs2MEv/uIv0G5PobSm1+1y8uRJhsMh1lqKYU632+XcuXdZu73GZ554gtnZmcCCmmQm/KSnRUg0JmLAYQURtXV9nBN4z0p3iJif48Qa/PkPX+d6r8C0O6hiyLx0fP7oPr740C4ahMWw7PfZt3Mb5EOwDmkMk0ntWAvl/jvc8PMEme6D3ufEJKtD7SSHHz/xeU8+z4hh5Mbn8q6A8BFCuw+sJR+f64OKtp+CAE2USpN4XyFFhcbhKXG9IWUpMFOzoA1SCzY9vHXuKucuXqXVaPDEw4c5vjdjShKMWylH25W0fve+CrdCgJ8gFvv6YwsfVYBh6xzqpz+EFUifYKSFYgtbDlDtNgjNnbxkmBp+dGqNv3/zPCZJ+bnPPc3Thw2pA1N0mM/Az2/Daz3id9bnpt7C1291pCczsdWc/KoDl3WQFyWNzFA6KC0YA/1BgErwntXVVZzzfPazT9Npt7i9dpuZmWnyfIhQGm3S/+9O4geMCrAi7CSAcE3a4MWHKIAiAKauZOBhKFI2EJxZg787dZ0T17YYNrZRbtzm2J5Ffub4Hp7Yq9mZgnabSD8EY0EInNYB5wacrJm4MVNXEqXScKJV4FU2my1UPC4BzM7O8OIPX+SHL75ImiT88R//MZcuXuQ/+Y3fIEvT4P7igwocH3eH4iV+AGmzQW4F3WFJSxnSNJ60KqdqNNDzc7zZhX/z2ju8O/SgEmRpWfKOr+3bx5eOhMw5IejfmFYDhQUdCsi4aDWvJCgZfAeHJa1WhyIvydJwLoqyip6fVeje0xotFVVRgvOYLAtbEinxzpKXJcpopFIUZYHzDpOkDIY5rUaDvAhSp1mSxB4IwPkRLOe9486dOyxs387G5iZTnQ5CSob5EKV0MB4gNKrUw8Z6i1KK4XA4KuY650jTdKwd7YLoVR20PxUBul5xpBBoKhTRGqihQppRFvScp9AJpy5c4/W3zyJRPHLsKMf27WRagrIVWlbjVvFRBeA+9JhRFdcTc5iJ+x+gAO0MNgdsjkkEShtcdwvXnsGnhndvlJxeXkW0pji2f4kDOwwNoAM0I60Op++1WLz/mDgFNe4MjPp5KgGFDzznVmYYFA4HJIlkmIeJ6b3nzOkz3Lp1m+ee+1kWF6a5s77J7MwMzlYkRmPkg9GkAoBUOBQVhE1VVSJdzHhFCRSgBLn39IWmT8aVvueVcyu8dXWNNdsENMd27+WppXkOz2gWE2gDKRYhQgt0kMIPXio1xm2IGLcnzFnvcc4jo+i2UmPxzTRLWVhYoD3Vpow6xFeuXEYqyY4d20nSJF5D8pPZ/nlNpmeoujmltCRZAwQU1qKEQ6WGvoLlIfzNa6e5OnDcKBzzaUpLeD67tIev7tvF9iTUS3Rsb9EAI9frcZJUlKFYqE1Cs5UCQbrzztomWZZhUk1lK5QMtarvfue7/On//q/x1qGVwjtHr9djemaG/nBA1mjQaLfY6nXp9ftBL9pWaJMw6A+Ynpqi1+0x3Q4iS71uj2BiG2olzVaLRrPB9Rs3WVhcpKgqbt6+RWd6mkaSkg8GVFVFlmVIKen1eiRJ+AyklDSbwcT2qaeeotls4r3H2tBhq+5h2Dz4AVqAV+GDEt6S1IKsrgSRQJpgfUIlDO9cvMXrJ09Tlp5Hjx7i2L69dBQom5PVVjejCXo/NKpOI+/Fve6978EI0FJJwi4wY6ROozOcTFlZG/D9V97ixuaQgw9/hocPT7EzhayEjg4FHT9wCBPSNfc+SdXoLPmJjHlyHWN8NrQgMD+ARiLZ6pdYKclSwVbPcuniRdZu32bf3r3Mz02jgGYjQ0tJWTm00EF17AEZIXSGoZwlUT4KyteVI8PAOnLVYCg6XO7lvHR6hZMXbrHeF5C2aGrBkwd28vR22DMFsyIyFbyIDBuLDZwHLFDF/UhdDHeRxwwe5x3CBf89KccVLKUV09Md9u7dw9LSTlZWVrDW8vnPP8PCwnwoEjobg/o4sP/kQ4Jo4HKHagXHl8JbrCxQOkUgOb9h+X/evsCFm1tc2ypoTE2jij5PHd7Plw9s42AamoIrXevE+HEFtr7uZFhQlHdUHqo4CQf9LlOtNs1Gg8QYUFAWwbXEaI1zjsXFRX7j13+dVtYMhq1KUZQl3X6P9nQHlRgGRU5dgO12e8zOzoL3oXXcBpqiK8uQ+UZJAu89lXNsdru0pqYwacYgz/FCIJXCCEEx6GOtpRXbzHu9XlDaA4bDId/61rcYDAajrLnOrmu52LIsR3/74AdoQGgR6EVViTYenMeWFi8dygSbpgurG/zwxFusbfU4evxhjh8+yEwi8MUA6XOESoMiFfeqXXxAOaG2bAjIbgxQ79WT/WkNQcT+bNTkaDSQSnLp+i1ePnWFG2t32LlnP0cOdtiWBn5p5iqkE2A91bDAmCYIInXsQ16Micz5PncrINWKQW9Iq5WRJSYohgE3V29w/dp1FubnOXTwEL3uEJto2lnCoNelkZrQ+D5qo/7pj8ByDkVXJRxa+ghx1WwLRak1AzJWCsfLZ6/x+tmrbBYGpRukieTI9kUe2QWH29DWkFoCfUzUtRWJH8kv3Wdm1l2bhAXZ4yYSDY+3QVJTasWePXs4euwY58+fZ+fOGb74xS+SpAn9/oAsTeNM/gSqhB7IITEtrA72WbmwWCWwSNa6Ja9cXOXld5e5LRuYJMPgOb5viScPbmP/NOheji9dqAwCwvkorxyDs4hQjHcgNZLQiRqKksHJx2jNxvo6KtOYLCFNA7wghWC60+GRh4+HP/KeqipJsgYuKtB5KfBSMCwK8rKg2WiglUJHhpEE+ltdmlmKkrGf0XtOvv0O3/ne83z1a1/j+KOP4oDuoCDNEpyP3Y8+BNxut8u1a9c4cuQInU4ntOJXFfPz8zSbTYQIcQ2C8h0EPDpNxxDfpyBAe4RweAqsc2insDTJZUqpUobOsLrZ44XX3uR2t8f+PXt49MBBlpqClLAtEvigtCFHkibvU6+9O+zcD/oPl+eDkUFbgiQozqFURmo01zf6vPDq21y6scHxww9z/OGjbJ8KgjOJ9aQq5sHe4gyjIoweQT/1mGRh1L/hnt+Nz1Ct/JZqBR6Gg4IkS6gcXL60yur1VRYXFjh48ACddkKVB10VW5SkWpMoFdqSPwmM9BMagknGkGdkaOo8hTQUukEfyeUCXj5zndfPrbK+lZMmipYq2DUr+PLRlANz0BZhh+EdOCxSjC89iURPlMB9fE0FITgrCMYMEuc9lpqXLkInowvZ1/TsDHv27WVqZpq9+/exe99evBAoo3D4kUrbJ3FiytJhGqFhp7CWUmmGSK73K05evsWby7fp+4Sin7OtLdk72+Krh3dxqBMwZxKHN3JEE3XUG4I6QIegWFRVaH5SCusciZEkJmHjzgYznQ5pYiidjVIBlrIMTTy2CtohYR00aO9BqeDKjQt8fSXCscjAyy+LIUnWwNpgKJ0YhS0LpEkQSuMqy+1bt3jn1Ds8+sQTXLp8lW//u7/hP/rGP8E0EvIycFeaWpDnOS+//DLPP/88v/M7vzPCnYNprBjdTuLNZczWs2ysh/KpCNDWFwhdIZyiqiSFSqiMogdcWBvyxunznLxyjWNHjvLQkSPMNwTGBzUtIRSlE8FdQdQy3/cf91NWnnSEgFpw/MHI8BDgkyBfnkvJ5bWSV948w7nr62zbvoMnHzrMnvlIR7SelqhQwoWJIASylVDGHkRxV4AOF8lkRbuuWI8Lh3URdfwg513A0YzCOYctHTdu3mb5yhUaWYuDBw4yPZXgK2hlkmIoUSIUY4phHy0l0jw41rP1rqB28nBliXQWKzWFaNJDcM3Ca5dyXj2/xvWuQMoMVeYcnG/z5WPbeWgBtmlIbdy/Cxsz4xplDl8agZpQ8qulTWsFalF7T4pw3kd5sJIBwhCgEsOOnTt5+nNPs//AAax3ODwmSRgMh6RSINTHX/yEAG8kKKgcOO+olOFWaTmxfJuXLt/iRreiNG10vsnuLOHnj+7n2DQsKkh8idMVViXUPapKiLhhjctifINCGoQUVM5RVkHbuSwKzp45w+H9++lMd1AyFPycJ3RNipoDbrl+bYXnv/s99uzdw42bNxjkOccfe5R9hw5y8swpTp0+zez8HEs7Fjl68AA/eOF5lq9eZarZ4qvPPstUq8WVS5c4e/YsyyvXOXfhEpsbWxRFxanTZ/ne8y/wC7/yj9lcXuPEiTcZrN+kk4TP69VXX+U73/kOS0tL/PzP/zwHDhxAShk6PX0wla2Dc51dQwjUxoRazKciQHtfoJXDi4Sq1Ay9Yggs9+CNK7d45dxltu/Zw5GHj7E036BlQVegFeTAwCmkTuKzvf+oSemjn+N/oQkj/K7mwj4QQ4KQjhLJah9ePXOJN84us3vpAE899hA7GopGDpkbYDQkRlN5GOBRRgfs1xVBovEDdhKI8bkY/WISiqgz7NgSbh20UsOl5RtcunCJRpqxb98+ploJ+dCRGUlVhSCUGIOzBfmgj242Hhh4A+4J0M4FOQChQTcppOBOBW9fgdcv3OHGlgAzTab6zIsBTx/Ywef3pKR5j1R5nLIEF70omukVwkZ+P1EkcBSvXWwCGgvdj6shYgxv1A+P58wD2xYX+MrPPEu73Q58/yx6kTiL9S5q2ny8c+wFyGa8FixIFL0cLl2/w8lLNzm3nuO8QVrYNTvHs0f28NSCYBqY8gVeem75EkpHy0T+PYwpdfUhelAmwBnOKoTyOOcYDodcvnKJa5cvsbi4yN7DB2lOd2hlDRpZIzRCRTbE7Vu3+N3f/V/4tV/7NWbn5rh09QpXlpf54s98mb/9/vf53gt/y9d+7ut0Wg1OvfMOLzz/PDu2b+f0yZPMtNsc2L+f1157jfPnLiC1YX19jW6vC0Jwe22dvCgZFiXPv/B9rq+uMpMpZDsNtFTvqaqKbrc7ypSttVgbsnvn3JgAIeXob5wbR5hPRYBW0iKoqIQAZSgVrPbgjUtdXrl4nZslPHHoCF4Keus5usgpbEnPO/pa0DcSIQ14NapsvceXLJKcw4VQ09Z9zBrHDMzgPfZgBBFLH0+frm9z+vqQt67cRM/u4tDxJ9izE1oDTyvv0pDDkLEJh9ManwYBx5ICL6tRq8vd4164J1INiedHTGTQ8XToKMiDh43NPlcuXsRVln2H97C4rUmeA96jFLjCYqTA2xJXFiRaBV9D7+L29gEYccGJ5iYgJEInOKlY68OZ2/D6udtcXPOUogMSZqcaPLO3zWf3z7OQr5GUa1TaYJVG0iA24+O8hCp63AnGq77wIB1SOpzywZk7fhYBrQ7n5u7AXYdvT7PVZHdjN1op+oMBAIUt0SZYLdV/87FOC1DE4ppS4Au4dv02J9+9yrkbfW6JDplMmDWGpx7az3MPCbYNoJ2W4AZsSs+arEidIKuPfLwCgYu8ZB9om04GSnrotvQkiWF+bo6//rf/Fq01D33mcRa2L7JjcTt7d+2mKkuqshwxJrq9Hvv27+cb3/gGp8+e4ff/8A85c+oMw8GA7YuLPPfccyxt38a//N/+Vw4fOsg//a3f5M//7P/kxInXuXb1CqurN3jooYf4ys98le//8EX+5b/6P1DaoI1hq9fn+upNfvjSy3zt61/nF5/9AovthMFggPeeEydO8M1vfpNt27aNuM9ShmttknoHIfvXWo8COHwqArRE0ARX4J1GyqC4trVecfXc22xcu0K7mbBy6Twrp7rMS8G0h7zfRVqLnmpTasnWsEAmDYqywjuLkhIVt0LCjQOzGPGcfUTGfKz0+tHx+A8J0JNAyeQWJhSmo6pYlDet6Wf1alpjU1VVjT7I9xtGVaTG0Ss1NzYtnXSazzzyKIcWIfPQaQgyMRX9exxV5RFKkInAuS18QSIUBo2yalSQ8rjYMTip+lxnaQE1FKNMLlypDkUhFVW8uF596x16vQFHjz7E3MwMlNDUII3CVZAZhZZQ5D2UFCStFngXpGIZL4qCyQXyfqVJ4iPqVnQxCl4Q3GkkIrDZJp9ijC6MaIOTBEoPVEJQ+cAiSITCC0+pU9YEnLhT8cLl27yz2eWGTGm5PtsMPL5vOz/7+AzbgcH6BkmngfIK7w1KJAgS8OpuOv04vo5/4RUy+uvVcuTChkJhOEAP1obuWjmmz0kLWI+Wmk42ha8sxbCimcVQGEnWllqsMMAgIfjHBhzrx8lMrPJaHfRvgjsiDAeWJFF0NZzfGvCDa6v86NYay6Ugz0pSLE1ZMduAa1f69AZrGFUgVMmyK9loGJom47zdCIHaCkx0YsEJKgQlMrBbZLBTwzmwOZnxZPPb6BtJb9Dlykuvgc7YtXcnX/ryM2z6iswoGAyQ3R7bpmc59uRT9JtN5g4dpUjb9LolzdKwe2E7OxcXWF25xhuvvM5XPvcFTp08jUBxZ22DWzfXmF9YYNe+fcwszNNotzFZitKKRrOJ0ZoL589RDnOWFrczP9tCxQy4ps1tbW0xMzNDkiQYY9Baj4JxnT3X7I06HtTjUxGg8Rk21zihQwJiQZWbzCUV+6cN3kjy9ZuBQK4NG9ZRFiVGCMwgpyhKutYi2rC+tYUtS6aaTVpJGi6CKA8p8Xhb4UVUz4sY3sjDjCCy/2FC+6IG/r1H6QAe5Hmwxm40Mra6PZxz3F5bY2nnEkIK8mGg/Iy5k32M+eCPx3iLcSXCS3bPLnDk4D4O7ZpirhECtLQRiZBNUB4depNDkQlBIlIEAlVFLnTs1xVSIGQVt9i15kLQMAvuETKal0bLLevISelpRSnh8oUVzl1b5YlHH2P7jh2x6UCQpWFxDSK/gRGRJtG9BoeXMjrBuBhya35DuB1F2JrzR8ArvZCRSRtVIoSjwuLxGBTaSXQlJ2hchANR4dYrOdLZiM3+o4dZAYNhiaHCEtxqrubww9Ub/GB9ky2l2JIF02nFM4eX+OrxGRYB7dbRMy0cEkkT4zLw4wVXCBhpdMZpHu+h7s6rD1NOLix2/Li6IWI87waZAAAgAElEQVQScxNojNKjxwk0zSxQvCZXHyegxMfmmAoVlZyVAwYWSMGpQGNJNb4JPQF3CLWdojtgZrbNufWSb79zlpdurXMlyyi1B1mSWMvKuXP86ckXmB9s0ayGOOGwCrYSQzcxWFFSiZJm5WgVjqyExAq8U+TSUMgEpzNKDLIsMc5jRIHyfUq7xdD1KIQjaXQoaTLVnuaiqOht3EZVOTiL2uzSlJq+UtzSiiqbomrOgUtpDhU5ElfllMMh1y4v86f/6s/IGhlzc7Ps3r2Pja1N0AYrBIULc0Ulhm6/j04yfBQY81VFMRiEjn1fjtgYtRhYDV/UsEeYAzHpiVl1o9EA7m5w+RQE6DCEGqOkLQMP7Z9jz+4v4XS4zm5HJS0toZ9DMw2/74W4Rwl8/+VXeeqJJ9i9tINOFq4P6aKuS+zeqhlUXtx9sdbXiIAPNfX2PlA4q8imqjsWSxeOz3p499wyv/8Hf8A/+vrPcfToUUwCqYK8gn6/ZK5j+DBrWk3IqqrcYoRguiFJiaYFBVSVQ2qJVmJU5EOMJWE8wf/tA4H5+LgKyzAvaKYNKu+xucWokNnYwmNTQwGcvXSTv/g3f8F/9V/8Nk0jqCrIUoFyUBSQJaNPlDo99CLkcEF6JxRyR3hrPIJw7mugdjKqCbxXBOaHHP2+lqgM9YOJHc8o6fYEgaNwG0p04j3x0uDxRnBzfUAyt8Aa8DcnLnDy6h1y2YB8ix2NhKd3TfH0rpRdAlr0cLbAS4MjQWBCk8jk+HFxhrsy7I8xIrk7URFKqRdc4vUAkCZQ+jCBlQITpo8RIT9ywPRimzMrju+eucipm0M2fQvbaJMlimaaspQl7N17kE7ep13mGFdQCSi1ZKA1A6OxvsC6nMQ60tKRWDCjDNpgRYJXKRUG4RyZVhhZ0F2/zvLVs2zevMywLFDtJY4ce4LOzpTlfIM7N++w1wc41ChDt9vj7OVLmIMHefv1d8jaUyzt3MX6jTsMnKbTbqF37+JLX/gSv/QLv8TPfPXZIIOrJKffPcN3n/8e754/z/zidq4uX+PmrdtkjYwbt9aYarV5/LFH+dGLL7F8+QpX9+5g50IHH5UHq6pifX2dXbt2UVXV3XZvH2F8KgK09aGhQotYNS6DW0MWE4UcaBWWdlNxs1sy3TCUVWiS66Rwq9fn7Kl30d0uO5OEQzE4VzGJSmQIdN4RcNAYs7wIQX8yQEv4UEde68JkrmRQ/DTxwqpth4SE1y5eZMZa1t59l+bevcw1MvI8yKfONQxF39NpfvALeUKS45rB76PmBdgqLAQme3/72TCiI0jthikYBaxAm5MjyMA6TzOdZVDkSDRpOoWzsN4bgtPIVHLh8i3++v/+d/z6b/yn6ESQJiCTmC1GBt2k9n9tvFBnvnX8CQSrWhZzrKJXh09fd5qNOLPjPw75p4g0Nof0KuLHTPRoxO2FtDjpRn+n0RivwKnINS6ALrkwuE6HVQH//u01/u70Cj2RYlyfRdHj8aV5fnFfh6dnHB3WkS4HobGuiZcpFRVe5B/4SXyk8THBYwlBu6YEKkEiIKn5xtKMC7QSvCxwqUMZH4wIqciw7AD6TLMG/HC54O2Vii03DcIgNgS5d1hVccEPuelKUpdjbBFqSNJTKk+hFbmSpF6S+dCp6+OOSnqQVqBchXQFJqmonKBfDvAaUi0ohzm9PMM09zHTnKLV2c6NXPPWiXNUpst2l9DctgtUCkkDKyR/8id/wvk//API4b/+z3+bpx/9DH9/9l1Ez1GVObuWdvKb//S3+Nbvfov/6V/8z6SNlG/+s2/y3M8+x75L+/n2X/8Vf/ntv6KownyZ7nSorOfWzZsk2vBPvvEN/sU//+f82Z/8EYf3L/G5z32O/fv3c+TIEX7v936PX/mVX+GXf/mXPxS2vHc88AHa4ylsjjIKhUZJQaPeGjjIC/CDIUszGcMKltqG9UGJMgG0KPDcXrvOzWuX+NozX2HX4iwNYsAtQ3abENv+owzACJuU4J2v1U7xiLt8tN9vVD7IL9ZJnXNQVZ6WDEHn9s0Nnv+//pz+rVucfflHPHXoANPso5kkNBo6wBJZsIH/oFFIGIoo9UiIV84B1iKkuk/T4yToGX8jPF66sZXXiD0QHucnJII8KXlekKYNvFDBlDZr4yy8e/46J8+8wxeefoq9OzvYHAYDaKdx0fuI2d9kn9td8cjXjnR3Q7WTYxR7I/xRm/sKH2P5CFb1OGFBVNRed+F1bVjxrAqrO31wXQbJNJsm4Ttn7/CXb5xjS3YwHuYp+eyOBb62fxuPzxpm/EbYJqgMZIZwKZUDoRX+Q/dDHzzuh8D/JM+hgTGVLc7mencVPbu8hFxrUAIrPJYBrhyQaIERsEGLf/33K7y64tgoBFYajBfMOIGUCu0Vwgc9jcIHMwdPRSUdVjmsCF2TSaWh0FQSBtpTxRqIxJM5SCwMB0O8deTK4aTCSok3DXRnO60KsrTFzW5FLgpMe4HW9Cz57S6rmwPywuGSjEFV8du/+Z9x5IufpyFStjVbLFk49M9+iy3dp7Wjg7Xw2OOP8d/8d/8tzVZo+EqzlEazwa/+6q/y3Ne+Rl6UoSoiFIW1PPTQI/zxH/0RnelZDuzfyyO//3sUgw0y7ZmamsJ7z4EDB8iyjJmZGTY2Npienv6xPrMHPkADGBNtkihjyUfG6CnQElqNDBwM1ruIZspcZhhKR8/lXLx8gQuXzvOZR4+wb/ssGWBLj8vLmHUmaEmQ2XQ2bPnr7i0fm1JksGtCBNzjbguo+xyv97gy2GdJbXBVCVVFkjUoBgPeevkH2N4626db9G5f59bVixzZvYNOkpH3B5RlSafTuauae98hQ7kOyWjhkAq8F9EJZaKgNDrku6NlwGw9Mrp0j++pvd8ie8MJ8srTbHbwwNpmeK1WC1avO945fYbtMw2eeeQQW6s32L6wgHSexCsST1hNJ49pIuT4yGEcF2LvrZ4xVsWLGfPkWxqzbcLDpRd3967XkNVoR1QXgW3EuON59i6u1CpsfZSgMm3WdYfvX+vzF2+cZ1V0kEkbuXmHR/cs8eyRGZ6YgzlRQmVxlUCaJohW8EsAtIhGxB9j1EjUxwvSwQpOJAH2uQv6qZOJOsFWEiFkhO0FXmqskAwGPU7eXOXkzVVuqCmcHCDzDVpCsuBl0BL3HqkklXdUwuGkwxKur1DYDHuzZpHSKFIKKekZT6GCCYTwlqyypNaifIUWnkoJBkNHWTmEU8EFsdKUeUlncYmVoqBigzIfoHOoTAuyjIHzpK0Wxx95mB3zc6SExKwcliTz03RMyrAakqZNLII9+/eGHZrwCCXJ8yHaGLZtW2SQ51SlpdmeoiwtSivE7AxaB8kFLZqo6QauGmCtJcsydu3aRZ7nJEkyov79OONTEKDD1tZRBSK6l7F44YNUmlegE0DSjhVRL8G6iivnz7K8fIldO7Zx9MBeMjzaOYzwyDQ6VfsKrEcIj6i77EamqBHOEG4cK+5xXXm/oXxMyV1o4k2kBTtk7cY13nrtJaabCXlRUBU5p0++zuF9S8y0j5JKS5YpoAo2Sh8wnLMUo+AmECJwFmqmy4ivBPcc8+T3dR3fTdwrJ27D91oqBoOKRksyKMKvpYHlG3D63EVmpqd54pG9uN4a2zsNdNkjNUmQGipic4ZSjJUDicc2pn0JUYegMSnYj7J4GUuHE7BGva/xsUtuVERUjLY98cl91BtxEGlr4XUEdoRX3z08qJQNPG8sr/Pt1y5xJdfImW0MtwYcnZ/nmUPbeWQB5kQ/BHShkYnByUaghzlIJbH6+PGogyKWET4ezCEopKDQMR7Haa5i7lGTNibrkeHMGLwy3Bk6Ll5c4e/OXeF6KbmjBFN6yIG5aZ7cvZuDnWm086jKI1JF34VdXiHD4ih9kJ5KfPhqVG2aVpIr6BnIVYAF8ZA6SKKjTSYtViu6VUl/6FG6TSs1+CGsbsF3zq9R+QFClFRVgbKKKjOQwr4jR/jv/8f/gcWFOSpfkIiE1IAx8USmCYqSbq+HrQRp4gLTQgULdJMmICSlDVK+SZJQ5jlJbJ0PMgBhWitAS4GPBUFr7ahQqJQiSZJg3Ptj0HQf+AAtCIHIe4tCjRW5pIhRSIISlIM+aTNjYEtc6Vi9fo3Vy1eYa7c4fuAQCZKCAi8kRtdewUFExlsbjTXrqBG3+owtnUaMIylim+2HDBXodJ4ySApIKIs+a/0NVDvl5371l/nLb/8VTz/zFN47rm+ssVj0ydIU6yrSj8AF9rFwE/LcYDwgvWcU5zyMNA0mo9VdZ7cOhPV39T8ZMqx4tUoBmdZxBxGKfZt9uHDhLP1Bl889cYy52Yy8t06r0cTZCmuDTJ6SE1e+lO99+fheQrB24ztje7OIwTm+y3s2ARPMjhqn9vd5DTGGocdinio+VbQMEyr49YlgaHuLhLfXtnjh5EUuXbvN7La9+GqLqczy3EMHeGwRZjRQBB1xl85gRUJF8LVMJ0/7x+XOT9RGftJRQ/b1YdnoAuOwEzQ7gfYK4zWFFxTAQMFaAedvOF67nPPq6oCioUnYYs9Uk88d7PD5/dPsz4IeuCzBa8hFCM4lIdBrJMYnZC4hc44qZuiViHIy4h6iDUGP3OAxKgVa5ITn63p4dxkur/a4M7hDM2mhpAavUVmCwFJV0Jpr8tWvfonNRmDgCF9Q5kG/W0kRdOSVRKcNlBYM84KkkYGSDAZ9EpOglMLawMzQWmGtpywqkkSTJYFfbiM8WlUVQrhRYIags1GWJWXkZk/S6D5sPPABGiLTQiikiCCi9REz0+FLCKwIUIisHJcuXeLqylUWOtPsObCPuaRFzY0NbdoVZczLlBQIGVrBBf6u5rhxnuVH30sBUnzwCe4P+mRZhjAifmASKSV55WjOd/jKzz3H/gOH+Mvv/nseevIxOlNTaGMYUAVhGCUp5eSW//5DeI/Gh3NDcHz21oVeDyEZa1pMFAE/+BmpQ7SMENKo+OahkUBRBdz+1mbO2Qvn6fe7HDp0gIWFJs7ltFstKhv0dGWUiMULrHOBs6vM3S+HGGlMQxQS8qNy7D1f9wI0jKLOvS35k+/1XhKHHIXquumj1ljRWKlxUuO85N11y/fO3uCta5uIdAplKxrVkGcfOsDn9wmWgMb/S96bPdmVXWd+vz2c4U45ITMxJBJAoqqAGsAiayBVZIukuiW22u6wFX5whB3uCL84HOEX2/+C+x+wO/zkp36Qh3aEwx1Wt6MHSS2KIimSEmuuAgpjYkgAiZwz7817ztmTH/Y5995EVQFFooohtXfEzenevPcMe6+91rfW+r5QQXAMnaaiTZxdkCuQwcBwAGk7ZkufZYgJordfc0wCRwFwWKDEU6LqUjuJAJegQpuUNjbAgYUbO/CXdw55e0tykMyRqH2Oy5JvnDnBa2c6nE736B3ukwsZ77FLCbKNCSmmblNPvSf1BlwBvoC0xTBpIdBoF0UdnAw4aakosVSghigqUnKSkFKJafbQrO3D5Qdr/HJ1jaFrobwmU55zZ84g3SH3fvKn/B//7P9kNhjQjv3Eszk8oNfqIWwgLwM9rzEpDKXDhUDwPmqTqsgn46xBSoWUY4FaISKs6H2kfw0+kGc5w2FBnudYbzC2HHUONn0NRVGQZRneezY2Nr7wPftbYKAFSqax5EdGA229jx6V1nghUBrKLMUJ2D085Pb9h0iV8sLZFzg2O4etDGmaY+s0UxiZ3Wa5iugWjkaYMMmPLXye7sWEmuFWoRAq3iiBJMkE8wstTp04R0BgbKDd6XH+uQtYZyNGpRJSmRImQv/PvTLCInxMdCFEradYO2vyaTGxqL/G4jLrLFKAkipi7G7scdsqUlyqVMRKGlNx//bH7G0+4MzKOV44NxOBPSEIJKMGiCxJCUic93ji5I/MYEc3wElsVfkGP24yswKkHKmLNPhzgJHySLOpOifwDpKMIx5nmPCeG2QkLrQEj8YAwxAoRYpBsh9g86Dil3ce8eG9h3ihmJaSKVdwaXmR336ux4kMKA+wSkIroQhRwUbV52IIWHFAkAOkSgjq2Qx0CNTakArnPFLJ+L3WHhx5ZULUrdERadcTr4vXN1b7OAluAjJqGqcckiAFxhrKBPrA6ja8c2+Tq9sb7CWxZ+BMMs2L8yf49vLzrLRzct+PlKBakqQaHxRGCAxiVLptpUR6jZYJBEdImsbzENW7PQhrkdKjtK7BJ0UEpTIKEg7Q3B3CO2u7vPdohx2pyCmYA5aO9Xjt+RNMHdNcP1hD2ENKc4hMoqJ51d/HKU0qUyprGFgPOqUikhsFb+m0WqMuQK00xpQjiEIKWec+oqGuyqieTvB1n4NHyMil4Zw70r7tnCNNU8qy5Dvf+Q4nT548AnV8HuzxN99AN2VBRoCSo1QhqcYrOLQBjaBINVtbW6zduYPM26ycWmJhah5tBKkNSC0QUo3QTRh7EnEqq1Gw/3jKionXfxEHpt0aZ2qVGHuMuiajbwgrnRcImeCCQKoUncRFVNXtDU8rktN4tKwD1hrOEGoyDp7InDH5ffyTpDZ0NsTKDyTBeLz1KBWhpGBN/b4pwR5y+8YnHOyssXxymnOnp8jEAZUTKDWNQyBVLEIf6QDICBk04evjqcBJ1DlxEmnqzSWE+ETj7E4gUFLVOT0fE1tNmOkcJHkDQTf/XN+LUO/DnhEMIpTECUER4FAJDoBbfc8Hdx7w0Z11tryk28rRhwVfP3mc3//6aZZa0KJAyz5W51QioyShpBaRBSoqJAekucEpy1PSvU8dzbwUQOU9mZa4iVA53v7YShx8GBlsKcCEUENhUXlbONAyoGTAK+pSx/gpFkElAkPp6WNYO3C8ffc+b995yLqXFN0pugeSrx8/w/dOL3BuKjIlCpmSdDoIBJaAEYyM8xHPXSqc1GiSujPRorGkNeEAZYmUAi1jNFMhKZzBkSJUwraF9+8N+Msb97h2WCGynBn6XFzIuPTCCc7OwunZef7Byn9B7g1R0cJCKrATQE4SEnASr2LbetzA3QjsO7JiwuM0amNunvHVb576IpHqU+71hLH+m2+ggVBahIpuUWUNTiu8hNKD1WKES713+QoYy6svvcTxxUUSYgmnlBpbetKW/JSBjt9rbzKM//o4V0c48j/PlksHMNaxOHUMbQVZiC2h3vkR01WS509VYJafV5TWZHwe31Iee7vmV1tZUp1FRjDrcc5H/LmebEk7Bxmw5YC1tVWuX/uQM+dOcW7lBIkq0cGTqRThakKgyaYM7ydcZBFhl8azH2W+mNgtI2QQ4ZnonUTrVlvo2vgIUpSKKuzGR4ut0iR6jBLCiGp/fKXG7np8H2w0UGhBkkS7vWHg+qMdPrq/wYN+hVNTVEEzOzPLieUziDas9UEJSSubwYcE4yXGxfJKKSIWqURGIqaQwSBsm0+xuf6KQwWBEgo/BB90XVuvCE23qBB1c5SgLAXtTjwWX8bX+bLOb4d4SWMlUgoijZdV+OhVC9g3Bt3KWB96fnnjFpdv3WMwNFB5WlXB108s852LC5zvxOaqQGzCMjI6FRE+UTQNR81jvM+qiBULSPBgXK3TrKN6vAdMfC8lFVWZ0kcxTOHWFrx3bZXNnX2mezOYYsArS3N8/eQ0Z2dSFoAekPgqNkyEuj80KJQII7jSx8DsyEpuHLTxb0wc/aedm6OxX/Nd8qmF9gzjb76BDtRERwIcJEmCyGHPwn5laLUTDmzgypUr9E3F+aXTzB6bj1hg0XiYoFwYMzzW7/srjSP/9+w3QHnNGy9/g2OtafK6pTZ4iQoJAUiaVsYnHpMc79hNLWszmcTEBPsMqKOxhxENqROCtYurVIJMBXhwNrJj6ERy89YNPvzobc6cOc7pk8fIpcGVffqDgpm8gzR1gk7K8bH5wBEZI6keO4qJnwUE7/AixASOd3gXZcpEbV1CCMi8RSg9Xihk2iJJ0+gdqQQv07onZkx2LUahPE1X+agMT3lJUrMe7hr45PY2799Y5dqjTQqT0+qktNMesjXNw3342WUYDg4IuoDUoJIEoRXSZQijCc6CsKBKrDzA2oq2DCSh84Xnxmfeah8IJnJvqHpOCxFhicZrljKal6qs6PW6hFAr2GcZZVEgdYJJFKWAxBNV1EPsJnUCjBKUKtAXHtH1bO5uc2tjn8IGEimYC5YznZz/8OXnuHAMphxULl67uCmm9bWORrjpUGwMswp1FBMkMmiUhDQ4jHOxzFOKSJptAKPASYSBTs358dFtx0+uXuPu1h6mssiDPudn2rx5dpGvLaTMtqO2UI5BNRv9yIcf1wM1UVzDTHkE/powDGL0189b74GjGXmeAiv+6uNvvoEWQK7wBwYjBTLVsbouQKsV26Gvf/IJt65f57VXv86Fc2fIAVv6KMHUvE2qOOI+N+PxLfTzxrM7zUeHhO986y3m5+dBgCtdDO1SNf68p32mrD3SI5ODCff/08b50x4DpGmCLSsCUddQytgNaQNQJzmGtuLj61c5LAusc9xevUX/YItEBdotTWIdmbVIH0aYu5BixEnSGGhBo2ZcG5bQ4KcxWVgoQaUlSoL0luCqWAsrQYj4P3m7w87eAV7nnDp7nsXT51BZBxsqavIIqKs/juDcYrJK0seGHi1HsMThnmPz4TqD/X167Q7t0KOsBM449g4GvLe7z+HBLsYXiI6ikhZjI/bYRpP7WH+uFIgMSllSmArMOtI/m9aiqKndup0uxphIrlNVtDvtKOdUmRHBVpLEKpKqJoBPk4ThcIhKE0yiKRSkVpJZifYK5RReSIyKpW5VFth3AyQVWQrd0tK2FS/OL/A7X/s6b56AFtE4V8EjkkAio8ccsw0OiSfBRoLVEKs71Kgld5zfiF2MAqc8WtSbmxCjpOrAEnnf9+FnN27x4Z1VVK9NKgt6GH7n5Qu8dHKKE6khrevalbO199E04TRQV1OhVAOYgnGZ4cTyOTLCZ5sMMcI46tl15Pcvb/zNN9AQPassLrZ+UVCGQNJtQYDVm3dYvfwJX3vxRS6eOUMuwRWWXGtaObjCQ2VQafbZ1+7L2+x+5bG4tDi6v95HhjsxgZk+dYgGP/wsKEPw+NcjTx/5Q4iLSiUIDYeV47A05K0crWFYBf7Vv/7XBOdZXFrmzr37SF/gygO8LZjp5mhT0BMeTIW1bsRzO570Y4aNscBhg3zWhPRSMEg1g1SjsUhnEL4kwZJKjwgWawwozbCy9OZPIvwxlBoS0AQRCZMEmkg1IXEytpN76mShpOZEbjYNiySWD5qDHartDczOFqR5lEEiUOztEqRGKk3fOoZeE0xO0uuCrvCujIQ7boj0DukCwQkKkVB4hc7yWG30DEMAWihsmrK7t0fe7XJwsE8vzZBS4nVMRkkh6PZ69PsHDLxnqtej7z2VjqT2TksqAZlSOKVIrELLKElga0OZtBK6tGhJg3KHJAcDTuiUb688z1tLLcyOR81KXHZIOpqzY1oAjycB0tpQx80l1G523cEYFEhJpSQFASEMCo/zBUolZLqFQ1F04b178McffsKVvT3kXIei2GE2D/zOqy/x7ednOI6LXjMO4UL8PGpBacE4m9zkaepfArXZ9o1xfkzO7gm2NhwxzGH0ly/Xf/7bYKAFWDzkCiVBDC1JkEgfeHD3HquXL/Pq8y/wyoWLtHSdOJJRqcMHgUplXBzBPRZef/ZnfWp8VUbdx9tZVRVJmpC0U4IPUapHgErU0zdjAQ2Pxecf1GdhZ586GIQOeOGx3mGER+QpTsPWwZD3338PpzWvv/ENplqalK+hfUFLerAFtujTa6VQHeLLYkQSMyb1j1L1MZSMxlgCUkqUlEilI0mJlPg05TBJ0RiUK0lCCaGKYOrwgGLQ56Mrn3Bsao7TL1xk9uQSqBwfFELkeOLCTp1C+hjUWjlCyEAGgohK0qPMotdkEo732jy3OM+gqlgbVtiiTwuByCRaBw5NgZ5qMdOeYqeCQQUSBT7B2iFpMCQ6kIrIaZ2JhF6aUHqDcc/OxSGEoDw8RGOYanfJVBvvbV1BEJBSUVUVm4Md2q0WKpSkqkXlDKmMHXzexU7X1EpSp9BOonzsQ1UBdAiUOyWpsiTC0FaW8wtzfPPMEt84N8+0BNeSBPrAEEWKIooCRMMLUui6M9UQC+dtNGRCUqv21UlaRSkEQeW1YESJUBKpUoZodoGre/DjOw/5cH2TfSnpJIGO8Hzz+dP87qWzzLFHB4UmIH2ETxA6rnUhIuYsfV1QebRSS+DrctLxAmkc4ScvvSZibQzzpIH+/5kHHQAjfU1LK8laGaYyPHr4gPs3bnAsy3nj4sVIeGRr4F9LimIYi3PyFFSUk8lUU381mbmehPk/39McQ9ANiPks5xQ5DhAC4wNehyj5AzgXj0Z/AUdajNCzTx/l5Pcn7ycB6ytQAeMNlTMEnRGEZH2/zyfXrrO2tclvvfkmWTt61JnwKKMRtiBNNK28C1KxZ/sUymCUidSkI4fZ430k8ld1bbQSAq0UidakNR2jVpogczKRoUOJoIRQghtCuUe5XbGzuUdijjG/cJrZ9nmwi3A4RdA9RNoFoaMCigVqj1LIMZUoxI0I5VCuqhOaglyknJlrk7/6EufPr/BwWGHLQCpbtLsZJI713V1EewqbJHy8esid9T57ewOMNczkgaW5Gc4tTrPYy8nRpLJNnmVUzuKC/Zzr/wWHlKhE47xDSkW/fzCWRdIJUka1jvv373P9+g2+//3XsNbWLcZxg5RColyI+Zgw7iRscGMv47URiSTgcNUhmRYc73VY7OV0FewXkGUGywCFQ6GRBpQVEdRVNb1k/d3hMdJjpSMkEhEUwifIoDF1pU9OSjtosIIgNI6MLSRXdgv+/Mo6764PqXQPVXmmpOL1sxf5exeWWcZDsUuSdSOmFBvrQWicjJCZB0SIXOdyJPjrmzOund8mIT3GM4440o/nDRmjiGH09TEs+ksaX72BfgV+fXkAACAASURBVIwH4vHDP2I8PuNCeGKH0aEr0UKSCMXO7jb379yhl6VcevEluipmfoOzBBlQWtJKNQ6PCzbmrTIVPXHGJUWfNtBHAvFP+Z7RF2xu8q8/AgIvI/WSyBRlMHVZm4pGikCJfWqZXSPH9Olz+fQZTJ5JeOyZwhhUpmtV5ujp7JcFn9y8wcOtTS6+coms00UmijTVCGcQPpLCSxHAVhwMKvZ8i6HIMdoTdCSSl0JCcLGr0HtUjQIqKdFSkSSarH4kUiF9jrAZIZQICggF2AQOC3Y2PA/Xhqw8/yozZ1agc5yYs++iRU5hoPCRjnaEadTrzosxQb0iJqVGqIMz2KpCiITZJCNfaHFCtEgspPX/ei04OztFkAk3dizu0U3ElqFT474nc3j5RIdXzx/nZDcltSCLyLiopI5SWc8wvIgOqrGSsnT88U//krTXY35hgbNnz9LtZniv+Xij4uH9T/jeid8DUkwFScqIqTFzkFpGnbE1u2ckyBp1z3qkUBE2aqxTKBFeIvPIixOryBUJCQQdW9ltfd2renJ2EqxwFPiYSEQRhEIqjWpuEZBFLwxKjdASr1s8HHrefbDNh492uVsmdLxiLm3x6tIpfvDKIi/0ID1cI9cRqrKBUXWKV2JU0umJ592kCI+qmtdHEBrIq14hj8EczZo58q+PLaJxce7fJoijoYgTAiQ4IRtUaoTVaGL0Gqwl0ZEkoCxLHI6s08YJsESiFuc8u/0+a2sPGFQFLz3/ArMLswRra5L8sfKGUk2LcGhEIca75viSH9kwJo3bky/ys92C8WdGQx97M0TdjBEnzRdpVFFEKTBGGOBR4vpA3W/CGI6Dsc8tgMoHStlGoDG+rs+uPA/X1tl6+IgzJ05wem4ORSCHKHDgIcgUL1Ns8FRV4ND00WFIisCJjIo0IpFBo8NYmFZ6j1QpQkSOAxFiQ0/qPdr7eEV0CsLFBecslRtwf2ed7eKQ1tIyM+dfhpkToNogc6iJiFKIwgSIUcdIqEn5RX2txAQbhwugVawQCiKgVQpqTIna1pBSYLzAuIxcSVb34MO/WmV7fR8hNS0xYK6reW1pntdP9TjXTegSbZZpx2NIVNOz+GwjAC6BKgjOzk/z9ttvc8N7bi0usrKywvnz58nMkMyWdAVUlaOb1ayGst7QFahkwikR43nfzDg/6gmIz/kQxSukkDVrtiZWPwcqND4RKBkrQ2iQjdroapUiVBPrxf9N63tVAgXRnrcJWCEhzXlYwU+vPuLn97bZKAJBCqZSyytzKW+tzHJxDrrB4oICneF9ghBJhJuERHgPIXYIV2VJt5XV1SON+ZSj847XZgI9rvM6vnYkRmo2zT7VdByPDHpcu662NcJ7khrzdt6jEx2bwFR0Vo563BOu1OPt3zXVw1droIOP5MQSEFG1wtRLZRScR1pepBurSCQikiYHEW9eFUmLGRxabt66S9kfcOH555k/sViLazpUk44Fmu4GgYgeHIKGVvLZw5Bx2/GvP5pjmPDERzwgk7V1T6uzqyI+W4d2Ao0UkTzzSNBVT8YmmFETxtoKiUskAx8XcFnA7Vur3Fm9QaoE5d4+j+7cIZGCRElUXZXRSC01Ip6+WCf1WxgkfTnDkB6WHB8SMleSuQrlPToEgkyxIkMIQaokHQ0dWZGGikr2KOmg1CFaDRkON7m/dpWHa/fI0hYnF5cxtx6g5ABPSggZXhmCtARVEWQJQSN8h0CC0RVWmvpR1VwlAe0V2ms0Gd6C9RKSFCMFhfBYLempfXK3RVW20cky20WXd27tcvXhDnuhpEosrbCFEAG9s48ND1m/nfDICIzIGKo2ZYAklOhQPdOMaUh2It4MDPoMNx+yt7fH+s2rrN+8ysMb5+j3+3QwtLxDB0MuFMPhEK2jNyxU5Bv5lVyMI7QBEDHkDk4EKjyVAK0DFYJO40XXUzlSBOuRgyCINTYtD5UIGOHJReTJsVJTBHhndcBf395ltUwwKJI851yvxRunpnh5PmEqWKj6SJWAyKNxFim+MvhqiJUgklgXr4KNGHlT6tlAE6KBKSZsQU3+blVceZJou0cNTtSWelSVFGqbLvASLLFipTHmTf6wMcU2uFo95agTeCT+HaEIvwkDPSI1Evgmkz7yDuPhuRCQSqB0s6WBbCm0VJQBCh8wIeJJd++tsb27x8rpU5xePh1bVkPEbVXTUVefeUCOKhzi2zaAwbNiRF9GIXqzYz/bsYhG6mLkQdeK0cTJIYmXP1Ansn3E6OVoYvqIBSMRIQY7D9YecOPqNZwpmDo2x/bmFnZ4GL3f2jArAaImfbHWUlUVzg9BmBgghw0CO0BCCIpBzeKpEGihCN4RvEdLQaoVu7pOFopAIrbBGYQo0dqyu/eIu3dvoLXi5InTJHnO/rCP9xZPGh8iEu8HaQnCAAIdonqeEx4rfWzEEHGRCkAhSaWL1JAmRnlSaVyIMlBoxUALBiFl3yj6/oB3b91gdddCZ5phUZD4wJljx3juWMq0FFQHBVumH5t9VEahW5gASTDoZ8Sgm3bhRkqp3+8TQhiV3G1vb48oLQGqqiLP8zgXapZHY8yIH+LLGBHmEHWdsxi14o+6PnVkp/Oi8VujwUkB4SBzhrawJFmbvs7Yl/DRuuVPrt5gc1iRoJjGsdzO+K2lBV490WUuB4IkCI1NNQiFMYZc6xFkQ32+AkGeZdQXYXzgglHbwMiLnijfEGHMtxMERwTsxeQbNAZbBMZsHfFe+RAw1lJZA0pEMVjb8K4/hqE8YfwGDLSsuXhFjQlNwgwCpI+3tuZarjUvsR6KEGL4YGF19SHrG5ucOr3MyvmzWDc+gSBiHeeR0xZH/WVRz5xny7J+WejSJJD16w8/mvJi9AjjKRQfoS4Y8fGzovcc8MESvEWIBCEluYJ7D/a5e/s2nVaLxTNLuLJgpt0iS1RswHCxVjvRGikFxsQKAucslTxGqRNwFak5IHVlbIJAUtKmjAAJoNCuJBcVmRYkiSbIBKtbBKWZZp+uj3L2e/t9lC947twZzq48x+nl80jdwoUcT4YjxZHUOGqszvDCIYIjrQNqHwReNFSlTWQRYk+ElhhTIIJHidgj4a0leI8SEqN7lLLN/SLwl9fvsJ33UcttDo0jz9u8vHyS7188y0tzOT1f0DIHGFNGNcQ0x6gM4yGXgeQZ77Vzjqqq6Ha7KKX4yU9+glKKXq/HwsICp06dYnl5mcFgwHvvvYcxhiRJsNZGHomaF+JXobp82hChbm0XIiqhNE/UMJGtG4AaxKPJmegaBmkjSAn0LRxouHIAf/Txda7s7qPzDFn2WZnp8dapKV5f7LLSiTkBnMQnOUYGDA7rLIn0KCXRWYrQscTO1fzL1tqo0zipYDHh0cffa5daNA7MxOqcXK5HbqM4+joE4EeNQ945XPCxjJOaSyX51brlvlIDHRAEoSJDFY2hjDt83FFF7PQLFutjMsUjGBqDUxoSgfGwubXDJ5ev8Nz5c1y8cBYN2AqcsyR5JF95/LpNGueJAIIvF8J/1vFsx9JogYxDpbFRljS4WVQqlyLUjSPEZgJvYwKoXlUHB3Dz+nXwnosXXmCq06YYHNDNM9pZEjc279BKkWWxY6woC4phgXOOUncYqA7BDGkVm+Rmn8RbNFDIDkNaNV9aQqo8HeXINLH7TSqMbiG1Zi5skNnA7obhYGdAK1G8+MrXOP7Cy1HCKCjQLRAJQWjqgrmjm3HwpMJEcxwSCGoUkY5eVwdC1mUkOtZGC+/AuvpJyUC12Xewtg+f7AxwU9N4PIf9bV47c5pvX7rIyyc1pzSkdFGuhfMVQYoo1BAUzscuvKfJpD1tNIKjIQT29/cZDAYsLy+ztLTExYsXI5Oatdy6dQshBEmS8ODBA5xzzM3N0W63RwxrX8oQEcFUj2tailjuXApPBViaemMZQbhJZE9ppA9sDiy3pebPLj/g3ftb0GrT8yUnc/jmmXm+szzLiTxi3D7EogGhdI2iOLqdHtpLinKI9x5NVM1uvGhrbSTpEmOTOsp9jg+b0R/9+I91njn+GgLCTZysCHWOrC7xFpF1UykZpRzTpM5VR+a72FQbu2If5/b4vPTiV2qgvRBYoer+9zFpZ+PLRIMicd7gvURlUe7Je4lOBAWwuvaAG9ducu7sGZaXlhCANeBNRa+VHqEHbUb4jMfkc/++jCYnA2NkfGyk65UQohkXdegH0YMUUiBFLJQaHFR88M5lTFFw7swyM70e3lbM9HokgqgIE2qFQimJSIHHG4czFuc8JggKnyKtJ7ca5RRpqJCuJDiHsUMqkULeQwuFER5bRq4ElSQIoVDKoTmAgzvsbTxEmD6nFpc4fnwpGuXKUThLojxeOjwBh6sTo4pQGwsJKGEgWPAC4dQ4pQ+jeNtLIsG7BCUDVVWivEDJHLxgq4K31+HPPr7Hjf0K1VHs7G6yfHKG7735Nb62KJkVkBpAgVESKzQeh7IW7S3KgUgTwjNa6AbOANBac+nSJebn55mZmcE5x7vvvsvly5fZ2dnh8PCQy5cv84tf/ILXX3+d6elphBAYY2Kl0K8oXPqpY2HCsDUhbzO/VKCS8VHW8XJMDQYSBOnkPSCy1e2awJ9ff8CfX1ll0JoiTRMyU/LmuZO8dW6Bix2HsLEJxUiN1WoUh2vSmlPLk+QZnsDO5hYb649ot2KXpVRyZH1GzkwYm0UvGKmnN39rFHgaeEYE0HWJYnMNvIwQToRxYvSaBQmFxToXGfmCw3qHVJJWu01lKk6cOE7WQC/NmyE+0zh95R702LNpGBFCfVsaI+3jAlE1QixAaIUFHmzu8sEHH7J0/AQrZ5aY6yUR2vCOTitFipipzhJ1xEP5rKUgnvDc3/bRGOUmqSFDnaEJnnEKWoB3se5aaYRIMQQq57l67RoHu7s8d/4cC3OzVMOCREZD7gUMDvaZnuqRah0JzIXAOocIIdKTIsmkpENsluhkHTop5D4hlH1Ka5DlAUGkqCRBqi5WZzgTSJRgqtui19akqqJcf8idGx+yuV1wYukCy5fegOnjEDLIE3KpsIwjsoBv0M8Rw2pD2SOFjxdlIoRSkxdNgUKhZVzuTihk3sLLFsVh4JNt+OlqwY3tAwopGNy/z/Ge4vff+BovLki6BlS9M1aC2HQhJfhAHgK6odmDoxjor3OPa+w5hECapqysrIwgC6UUKysrrK6u8td//dcIIfjDP/xDtra2+MEPfkC32/2VpZaeNmJ9cZMwg+YiB6KEWoQ0Yt4nRZAGGats6uvuJPQdbAwcH6xt81ef3MCIhExrVDHkG+dP892Lyyx3QZa7IBU+hlyxms/HlpdMSsphETVIE81hVfKnP/wh/+wP/1emuj2qYUG716UKbgysBmoOklrYWdSbug9HjLSV8Tipzyx1grRRRyNWBholYiNUjUK3ZYKoHGVVIVWEd623qEQzNzfHhx99yD/5J/8Tly5d4otg0V+xgZ40zmLCkISaHNzHBj8Ru36MM3ihEUKy9mCTa7dWydOMly++wEI347A0SKCbJZjKsLu/z8KxYwz6B/S6kepwkgdQjAAVjnz+vy+jsT1Hss0EIklM7V+PXB2BC7HQDJHgEDza2+P+g0fcf7DOxRcu0uu0cZUhURLhLYlOGR7s0+t0ECHE5eajp1kUBcYYfIgJw9RVSH9AsI7gDYUPkQq08JSDPr6/T+kVGENQAtrTuKCYUpI0gcxuEXbW2Ll/lcNiwMyx45w6fQ56x6CQHA5LVCd2N3odcCqeYyDQIMz4NHp0ArywIAzeVYSgwavY0hvG3hLComwJOtLQliKhkC0KDzc2BvzZ9T3e3RSEPEfbQ051WvzBW6/yO8tTzAG9Gk40wCGxZEwLRa4UiYI6HAQXPf1nHc45rLU452i1WkgpRxUaMzMzzM/PI0RsWDHG8NZbb7G8vEwIgbIsSZLkS0sQAjEqGKc/QI6ho4g3R/S1ZcU4ghfQV3AA3B843r3ziB9fu8uedSwsLlKVBecXZ/nBpWUutCEzFbgKn+ZUQmDxWBQKyGr1ep3nEXoyFWjJ7LE5vv/97/Pf/Ff/NanU6FZOJTyuPlwZiMovPhrXSkWblITIl91YcqdC3YUaN5zcgrDjDTdIQanB1u3jIgClRZroPetE1foigcHhgGFZ8I//8f9AmuYchTU+P67/jXQSNnjzuGu/XiCBOIGFwAZDaQIy1zgH99fu09/v893v/jazHU3wjm4W2cKq4SGJlMxN9zg82GO612WyMygwztI2RizS93wZk7OJCZ5lTM7qX38oJgwOzWH5iUdtIKQAqfFKEGrMtgDuPtrl/Y+ucumFF2nnGcFZXI2RJRL6e/t0WlnUFlSCVpYjgUNjI8tdCCQ6QesE5QWyKqlcxWBYMLQlpSvAVFSliYvMSmwxIPORTtQLgZAObJ/hznV2V99hfXeD2ePznH3+NZhajrpJ6TTtLKMMEYaOJxoRTrAoYn2ulBNFkFIDHiEVLkQyeDTo0aVxYIYIayBLQCbYJGUA3B3Cj+5t8+76DgfpMZKyYEE4/oNvfYPvnj/G1LCil0RKS5OkGKEwCEw9w8ToEA2UJfRaqGfk4vA+VgC0Wi2ccyil6pItOarSaPDojz/+mLm5OS5duoS1ljzPOTw8HL3uWXHoI8kzKeJG1CgqyOiOaSIjY+KIt6rOEpYKdhVsAJcPDvnp6gZ3D0pa3TZ+sM35uWn+4RvnWGlDyxJrinVGEJoSj6ECEloydowyDJAGZCpQicYS2O8fsLuzQ7vdjdUGHmSqaCiT1MR6UbF0emSbJpekknXymegKiCgVGl9Ud6g2GLWqL0WSapTWWOspigqpoxfd63Xp9Lrs7u6NoKonYc/N+Go96DoCSuoL4K0bL6AASIUQKqoSCEmSKDa3d7lyY5XdnX2++9Z3aOvIfZvJCIcIJSBPRkmwtJ0jwojtBEbNKoy+NwY6BH9Uyfjx422s++eNurBRiCcb6KdrjgnEeCl//tE85W1qxtw6ueH5lHGGmJwQsYmlIpLmDzys3t/mlx9eZXn5OXpTs2RaIQm1srlDSUGr06GdZ6SJJjiHM4bSWKqyjJGqiqxpZVGgy4J2VdGtE7/7tqTf32c47OPsEAhYoQhKk6QJeSfDFgUMtymGO/jtVYrNO8wvLnNs5RWYOgn5HPgeIWSx4UbVxSgimoDoOceGHRUE0tXAsgBE1BaMSRpPaCA0D8JWYAsoB9BugQkMtaJQgqsD+ItPtvj5wz5bzuHcPgtpxbfPLvHbzx9jOYGs6kcsUoMQAU9CQo5gxDQR72yaUuN3T5kPTx+NYZ2UUYofMVZqOX36NC+++CIfffQR3W6Xl19+mTzPR3JLXybMYeu4OBq4UfZtZAQTL9AW/HYfmXXBBGwqKKdgF/jR/Wv8/J0NHhy0cSKn4w1n5nK+eX6Wi1MwA2gLiATr4dA4qgQgEOwhie5iBgVJkkMImLKiVAGTaPJ2i163C95j+wN0t0NVeUSaRFVwJNIEhBfYEDgUjk4aHRcVwO4eoHvdkTU3OAwOVQWu/+I9/sW//H/5T//RP2Ll0kWG1uG1Qhpo1U5h7M2THA4Oubt2j7Pnz5Fm3RhV6GSkggO1fxpquLfhR59Y91+pgY7Jmhr38yF6WQ1LtofRTqQ0UigOi4qNzU02H23wrbf+Dq00pZ1ALmpib5r/GX+GUHK8E1B/b1wY0RhqaARIn2QUvxiV6/h9n/g+T3mL6O0/4YXiC7zPiGd58uFHCZi4yyuM85SVx2lF4WFjr+SHP/krllee5+Tp0yRYpDc1e2mMNLQErWM7nncObw3O2ih+WZnI7yAEzlqKoiTt76KrAUFInEyj52IN3ntMkHiZIfI2eW8KpcAe7tKSBdMtz97qTfyDqyx2M7qnz6LmzkE+D3IKRAdTl18iJgs0FY3mjAKkr4utvQTha452iReh1t6L2IeWFqGb3zV4cEFiU80jC391c48f37jP3dCi2xb0ZMWrp+b51vlTLCXQHu4DRZzc3hFkdC40sYMxgVipEKhr0PSz9zU1U6KeEJ8nldRqtTh16hQXLlzg1KlTTE9PH9HG896PWAa/jBHx5qaVugGcYjGrKC3lVp8s7cHuEHothIaBgA83HvGLu7dZt21s6xhisMFC1/Gdl8/wxvIsJ4RDG08iNEEqPAqdgMcQMCgBzgwjz46QoAKJ1CQqchNa5yiHBaGo0FmrdgTjMR8eFsg0J5GRoEUQPe/SwXA4ZLbViux+RQVaUzmDV9GhUipgioIHa/fZ3Njk4EPPH/34h/yDP/gDnjt+ClPGNZsnUBSGd959lz/5d3/Cf/vf/3dUxtCb6tHr9qJieHMBR9dSHBHJaMZXa6BFXafsQbhQI0ey9m4a6prYrNwfVty8c487d9Z48aWXabdatJIaE6rz9WMkGUZn0ZzkyDtoDGjDMtX8TeDd2Lv+zBG+oCT60x3kp7+Fb1bx5x/L0xRVRhhnmNg06qgpiCjgU3mwIsEJTWFh+6Dg/Q8uMz+/SLfbo93KkEVU4A5ECfmmu8UagzcVTdVN8LFZAqIhD4hRQX4wlsp6vCtBlmRS4nSg8opCJRQqJW23SLvTZCogyw3y0Ee6XQYb98BYpk+/CCcvQOckyA6EHBtETNTUe+tRyFMh0ciR6qwnxqCBWFoX/yGM5o/H4eNU0RJEDk5j0hZbBbxza58Pbtxj67DCdLvMJIZLMy2+c26Bi/OClrN4P4xUxTpiwt4HUhWhk2SiMdRLKKINIOM3gyVKKVlYWOBb3/oWs7OzaK1j2ZnWjOSwfgVF6Sd+1ghUDBMNaGMoU6kE1eoCOvbMS6hy+PD2Nj+99hG3D7dhmJBUFadnpnjtXIsXT82wIAKKAxwap7qYKu67KZDpBO8C/YM9fvnxxywvnePUiSVC6aKR9ZZ9aSnLAiUkIgQe3bjJ//Z//1/0nlvm0cEefmj43m99h1dXLnDlr9/lL668T7o0z8q5s7z+8iv823/+RwzuPqTXafPWP/xdZs6d5PK1q/zFL/6S4uZD7L0tDvt9nLVcv3GDf/ejH/F7/9F/zJ07D3jnL37G3tYG3XaK0pr33n+PH/7oz3nxpZf4xuuv0el0MNY8+R48hnh8pfOmAc6Dc0gPUUiufkbEUNTLGL6s3l/n1r0HLCwe5/TyMsLHcEMLPgMMaEIBUTuhNZ/w6AyPir6OvkvxRNggRhdPs65ywvB//nk/zf0Nk9UFn3kskcf4iZ8jam+5cf3rnwMCJxVOSErncChIYHe74KPLV3FBsLJyHo9kOKyQzqKcqcVd4z1xhEg+5Sx4R5YmtXCmQuoI3DVbYmY9iW3TyhSy6CODIUiPcwKtBF5lmGyWpJUQkpRUlHTEAeXWLdbXV8n8kMVzz8HJF6BzHCdnCSS4ECGZUHcaNxFgnY9ColBBjyOoEVuZBKlr4QCLoCJg8FR1C6+MrcFB4JIWOwY+WN3nnU/u8HC/QLS6JO02p7uK757tcWkuYy4EtDlApiG6yHU7uPCC1AuUCXWBLjR+SEFMIDbtRL+J0ev1eOmll6KqfJ0wbCCRL7MOWjIu82zKaAHS2g2LeE9CDRljBVxbN7x36zZ3N3epck1PZcy3u3zzhUXefF6woIeEsIUWIJMprI/YtrAQBjValGnU0HD9ymU+vPYJs3PzrCye5oWV52Gug1Qq1hn7AF7Q397lX/zz/4ff/y//c46dPsnW2jo//Hc/xFza48bbH/L2lXf52tz3cCHwzvvvc+vmLV4/8xzvv/M2+duznHYX+dFPf8ztjft87fgSu+sHHOzu16RmApTGIvg3/+aPkQcVJ48vMDPVRirJ/Pw87XabNM2Ynp4hSROqssL7saWKYyKJ+piF/urnjfAEEeLVFTDi9lHx3g093Fzf5MaDR7Tm5ll56SWChlRBqLH0ICRBpNHkhgmC+tpCTAb4zQifekaMMZ7PHU8zvV/wlCe+PvFFz7hWtAyjtGdAjJjJnBjTa/pEYVw0zjdvrtLf22Vl5Tlm8thBaMshWkYfyDuLDz5SCQWPMxXeVogQsC4hz3KyVCLleMtUOmJ+qRJoW+GlojJDjHf0rWMQPF5JslTQywI9cYgudxHFFv3Nh2xv7/DchYvMXvg69BaBHjak+BAIoW7BrlW9Jy9dzEEIQkiIquYO6vOoAfI6eROhkLoanIDGkGBEm4HUFALev3fIz66usrnXRzuY90POd2b4O8vzvH6qzTEVcNWA4Cxp3gIclTMIpVEiQ7q6m3N0YPERAaKAfNYb/QWHrzvnZmZmkHUrPoxhkC8Lg25OExpXyH8q7e2BIjhkV1EAtzYK/u07b/Phg/sclEOEloRyDfSQ/ewBN/Y8t6tHiGqbbqYRtLEmRVYZSeiSuAptK3TiGJo9Njd3uXJ/FZUkvHD8DA9vr5GdWaR17gRlUeJtbDpq6Qwqx6VXXuGbf/f7PFy9x//yP/7P3OncxhyWzM3M8tZb36bX7fC//9N/yu++8S3+/m//PXxR8snNm3yydY+1nQ1e+63X+c/e+gHvdv+E9z74CCUVSZIilGJ9Y5P33v+Q/+R3fp8f/N736XU1ZWVxwfP+Bx/w2muvs7i4iNZirFVB/SWImoCpuaBifJH5yg10vbOK2OBAiDI5qq493C/h7uYeV+49QOUdzrz0MiqXVC6ut7YGbxtjI/FBEPzECU5Ayp82zowNOZ9+zWcP8fQXiafb1S8URX6BNfu0l9gQO7MCjLhv3cSjgfn3C7h+6zabm5ucP3uGY70OLQ1ZqnEqRQSLIVbIeEdsQrEGaw3BxYShtQ6fhtEGFxnOauxMK/ApQ2NxIhLUH1aOfQOF0Mg0IW8pZtuSrhxSrK+xs3kDXxywtHSaE+cuwvRpjJrFyw4uyJjQFS5KX9XNwjGJK5EiicTsAEh8HY3VqGjd2h2HDqLWcY7QWkVGSU4fzYaEqw/g59fvs7pzSOU8abAcS1JePd7ht062Oa08CRVFMDgpMHUBZxftOAAAIABJREFUmRVRmVp4jYjS2Efwl+hIRxDgqLjvVzsaTzmEgPd+5D1/mdjzeFWN49RxVBP/UMpYraFzWHfwZ7ev8s7aXR5s76NkxlyWczzVnGgViO1VtnYLUoZICvZwGK9wViGrhLbs0ZUaWVQYP0S34MTJJa6s32ZQDrh27SoPb94jO3uc59ybmKoi1RpcQHkQPjA3PUuSJCydWiLRSVSuLy15krOweJyNjXXe++B93nz+Ir/8yU9QwO72FvfW9zmxsszJUydRWtHtdOi02piqwlhLYSx31u5jrWd2Zo5OOybOvfO1ujq0WvlEeaMYGbAwcT1DqBmKaoiyGV9xHXTUJ2uYowJQ+kAqBRWwvmd47+oNfCvlxQsXCLlkt4IWAe8d3nnaicbamscjhFokWowNdD333WR7ZvP5j3ldTzO+YvTliSf1xQzwE6tBvsDnfIGXKB+dxqbUZ+Q91560F7Hr8va9++zvH3BmaYlzSyfJBGRK0s4UxVBQWCLniapxF+9HF0wqiU40idIkSYLUNS1OnXDyweN8wBuDPTzEucC+SzlwCqMEOs+Y6Uim2oFjakBabrC/fYf9rUcsnFrm7NffgtklSnpUqkdScwVHPNMRW5aqEdIpqCt4SGkaoWKlhorVGtBURcfyKhdJnmK5gUDKnKpW67ixB3/6/nUe7B1Cq0ux9ZDjXc23zy7y5skuJ6VHVH1UlpDmLSrvqbxCy5RUiDHJBIxgDQQEEY+13UAvT43cvpwxCWFMes+Nsf5SW73ryoO4GYkRvQD1tTcKhh3FhoO379zl7Y017HSPnsg5mc3x+rlXeOOVOVYWI0afwkQbeOwPRUikV7EsrqExFfHcbqxd5f2bH7O5tc7i7ByL04tMXTzH0tkzbOyWFEkak4M+4KqY4Pbec7C/Dz4QnCdYR5JqJILh4ZDhcMjPf/ZztrtznDg2x4kTJxFhCiMF+/0D+v0DimFBnmU46/Ah0J3q4QUMi6KWegPnA6ZOkAMY60h0XSv9eF4pwgJHf/9NYdBN+BP5UusUjhRIBQMDdze2eXQwYOHYHJVKuHl/kyw4Fjo5vn+AGhbMdnsxM4vA1b34IUhCXUbVSNuUVRX385p0fCzfHPFCgUQrxVMrJ554RiKWrfknvih21z3xjR7HyD//dU8aMkhUiHwcXsjImS1kXVYX8fn+3i4bjzaZbndYPnWSlpKk3jCdaYQ9JPiSYWUw1uJ8vEuCqMDhg0fJWAGQ5Tk60SOYSApJEAFrLGVV4oeH+KrCkLErWuxpic4zZme6TOd9Zv0j9ME9zMY15GCD+blZlp97CY6dwetZ+jbDSV13nkH0PCskBVDg6ipjJdrEaZvQEMjGDSly8o7ZC+ucQs1fXRND44XmMMDaEH52bZ8PHh3gdMZMJ2NmZorXzy3w/eeXeD4zuHKAUgbjAl61UDLHuDi1tAdfRrw+aDAajGg2FUcewkjxiUT+RkDopgyvMcifVfXxpYwmOQ01O+LRMNaLWiVdwE9Xr/Ivf/lLKpUTho6F1iynuou8OjfHuS4o85A86ZK4LsGAN7F6SGtFkJbSHOKEIFWt+n7C9s4hb7/9AW2V8t03vsmbL77GyYUlWDrGQZ6y+f71KB2XJKRS4a3n1q1VuksnufzL95ibnuHFFy6wul9xd+8BlbEsLZ3mjTfe5O9/8y1+e+UlMilhaZqf3Hiff/XjP+P23busZfOs3b1HnmZMT09z8/4+xjleeuUV3p35MR999DEL81MsLk6T5zlZluO95+GDhywsLNCbykmTdAw1hQlQNdSt6I/dq6/YQGscmkDkTQgCtLIxNCzB7W1yqpMx3HjIlfXbpC2FsBX7iSYNgmr/kF6aoMOAUA0ojMSGBC/beNXGyxSvEoJSI9LWBo9seH9jI4fA4anc0ygfwxGbGHGiuh65zoA753HOPxaf1D/W4WWWZUg1AZB/xucYZyjLgjxN0VKOayFDJP1u6CV9/flBNo3xEEb1sClKRU/ShVoxRMjRphUIBFcxO9VlttPiYGuTbKpDwLF+sM10p4VAUBUFpjB471BNeOxCLb8VGeGQGldvUEJ4RJPk9Y6yKCjKAVJWWBTBp2QopnTGYpoyIz1pscfe1j1212+RtHqsvPwycuUFikHAtjRZljGs99MGuxVSEg2xw3lQMiGQciRtXEcjcbtryKNio0RslmhEIyQExSDARgl3HgU+vnKbdtJmZ2cDUWm+99oLfO/CMZYzSK2DVgu8ZFhaQho7K6WsacdrH0A0DjLRdxyF+aN73xivLyO78QVG7bWLBtesG8HUyCh8Ocfh66ohiWi8JiBglWCAYAu4unPAX11do2CWsoBjacLKwim+e/Eir8xBpiFNckLwOGv4/9p7sx/J0jO97/dt55yIyD2zMmvrrt7Y7CY5HHIG0lDQiIIkQBeSBd8MBFuWdKEL27AMGOM/wx4DnmsbEHxjG7YvrJE3eDy2ZcODsUhLHJpssrt6qeruqq49t1jO8i2+eL9zIjJrIYfdPTKG+ZLZlRlx4sSJExHveb/nfd7nscqh+yG7CNGLbZrJwx5NC94HMLCxtcm/8jf+Ft/8xltYPYImsChkmAUfs3uS55iWxkZ+75/8Y/7b/+V/RLeRf/B3/h5f//qvcPv9m+yNdtnf2sBYzb/xr/1t/pP/6D/mD7ymXcz5a3/7b/Gtv/IX+dVHD/nH//P/wA/+m9/nhtuk2tnk0/t3ubS3w7oxvLSzxT/4+3+H//4//6/5D/7D/5XLl3f57l/+y7z22mv8+q9/m3/0j/5T/p1/+A/51re/iTW9scjwhgFpSfE9t7pW6Yvi3TwjescEwQBDtmEPMtUVC4gWn6eQgvHM2xN8DKyPtwDHooZ1E7HqU7r3/pAfv3efeTdh68rX2Lj8VVK1SW0syUEdWrSLOJsweIyPaB/RXmOCIVjwNhFX+iTDMjCfAa01xogIfYqRGCPeB+rFgtl0xmKxoJ4vqOtaTFGV+Ov5vHza2tpif3+fzc1NRuMxCui6bsD/hspGa25/cpt/8nu/x7/6N/8mr16/jomBIiVS19JMp0TvmU6nPDk8Yt62FKMx0VjmnSdpw2Rjg0tXrrN96TKdD5ycnHJ0fEQ1qjg42Gc0cjRtIIWOFD1dXeObmhhaVApYrXBWY5ShXrQCBxiDUpqYxDzWB2l09DhaURSMRhXOOWIILBYLptNTptMps/qEWXtC5dbZcAfsjve5NBkzVp5m+i7Hj/6Yw9NPKcYNV19/m42X3obqCl3YpGNzEBOqUqZWakCLfGjMojs90qkGBrTEEnePeDwaGFOQ5jU2zKWh4SZgRnwwU/z+O4/5337wLk+CY21cMUkz3r66yV/95mu8fVAyTlDElNfcnqXmdv73bO85/4hlVO/oc1ac6U8H4vhTCy2sjECkREHdUrcLtFU04w0eovjegyf8l//Hv8CPDjiaauqjOV/bWeOv/+qb/MVXLNdUR8LjnEZhZBkCZwufM/MGz+gPZSiJpDg5PCIVlmJtwj/9/T/gJz/4Ib/97/57/PRHP+Zf/7t/l//sv/ovuPLSdbY3NkVBs39/es3qmLBaSZ855gMxfW9HSJpFAhXUcEVOejkkaZHPbUqwmM9JwNraWOCOXqTKGf6tf/Pf5rf//d/mrbe+OrzMF8WfmmmsfK3Eekg6fQlSh1UaosLiKYtCxEVCTQgtE1thqQm3fsj07juUnaZwFSPVERdzZnViiiU4TTAtynZY3WJSh/XggqKIBWWq8DYxV00WclmtlNPQ+O8TqDiG6EFHV3uPiR7jO5RvoK1JbSuVSVFQWOHchsWMR3c/5fD+Z4xHIyaTCa4QaU5tNM5alNY0bcPtm+/RnB7zo+9/j0nwXN3ZghgIsxnN0SHz6ZS2aXAxsWEcqW0RAEGhS0NJIjUNi5MTWh+oT6f4+ZymrTkmsigcXdeIeJCSCcEYgpi3EvFa0wWN1ZHSOlEK84Gma7LJaUIZjXGOoizY3tklBIEzTqczfNfRdQ1t0xB8J1V9McK5krVCsWlrxn6BqY9pj+8wO3mEKUt2X7pBtfOSDKKoCcmMsksLpLCsTuUn23id+26a/LYNxcaZBoNBA/XpjElVQTmB2DK1FQ/axPcfTvnjx4ecaC1a1PUx33htn7/yq69zY9NQhiBiXUahk0Irx9lnj09VOX2ooWIeuoR/JqMHD2f1HK0tzgqbJRjNEZofHz3hj969zbEvmT9aYNsRX927zndeP+Drlw1bBVhmpFSgRL5/eT7PnNdzJ/mpcy4X6fliTrW2hnOO4AP1bM60XgjsVBkml7ZYW59QOYvkZvkfOsuDJmSVRW4ur4xUkJatLvlIrkCTUSZHV8+L0opyJCBdiKKJUhTF0LhtmgUphp+7ZfylTxL2o682ajSlXClTpkTpCFrThEiKDqed8BebKZVuQE1pH37EBzd/RHd6ihldZbK5h11bo9WKNnR4IiEqutSgUkfUHqM8MWpS1FIJp0DwkSa14ujMsnqWf9JSfjAho+eAMQajNcF7mrqhbqQRoLXGZAuhfsmoV+yfJuPxMsekRNu1g8NyCIH7D+7zo//3R5Dgk48/5s0bN9iqSvzslPr0hFjX+K6TD37mWTZR7Iom4zWq9XXKyQRlLbP5nK7ztG1DSgEfIvP5nK6z9FlPK9BZk1gqeTW4PsSUWLQ1qQ3iAJGTs7GW0pWM19ZkXLhpqOsFi/lcnit6walDEKePUDI224y1ZWPiWB/XhPkDnpx8yNHxA6KO7Fx6hUuXvwaTS8A2xALdm6mqSNAtKWaD1dzkPC833Ou49Iw6EmgtS0STex0ajaomNBFm1jAzJR8B/+zRY75/5zM+6hrsjmU9RfaKMW9+9QpXLhsqBZ2P1EaGfFxKjNV57d6LSCR8aJmUJartSL4lFGOOguIHnx7xv3/wGbceebwvMU3LjfWK776xw194w3B9IguTJo6x2nyhFMSuW2nMdR2z2YzXX3+d3/3d3+Xg4ICqqoZE2eP1Pea7Oj7/eaPXSem6jrquh+eZz+dsb28Pbuw/T3ypCdrQAR0mOXTsnQQEHUyqxeso027WoKJoQbugcFhQC3jyPnfe+2c8OXpIOZqwvb1PtbVLcCNp3OiEMQrllKiqWSUNBq2xUebjoze0XmhhypjB+m+ZoGWJpAbbmtzQjEFGm2PEdx1t2xCyo4gtS6qqFB3kriOEgLOW8Vj0Z3txdGM0Wme8ODtadF3H40ePefTwAWvjCacnpzx6+JDdtQm6a+i8xxqDzaVhSBGfZBy+HI8oJmNM4fApEruWLhqarqVtmwzNQNs0aA1lWTKqxhSFxWiZ/RJFtI4YxY3aGgM2EG3IK4SOzkdR4YqRpmkJMRGCz7Qty3hkULkq79qGpgFNRekuMbKecVlj3THHzUc8OnmHEA1XLt/g4PpXoXoF1Dp0hTgxm4C2MkyCboFKLuLPSM4DlWtVbiQmiEkGWZJaNmA0zDt4ouAO8H89rvmDzx7xyfSEhdFcMvDK5hq/8foNXr+8jotL67WaQI1mokTa8iI9nw0FxK6jqgqiVnRJsdCaW4cd37v5gHc+a6DYIPkF17dG/Pkbe/zGKxUvT6BqofGRzhVY8xRp4ReKsiyHMXZrLVVV8emnn/I7v/M7LBYLlFLDd1NgSz8ITfX0t9Wm6ueJfn+r+WU0Gg0ON++9997SV/LniC+3gk4Bndr8TctXjfzF67TLCmCGgMbpLLyWkC/q0Wc8fv+PObr7IeVkm9HeddzWAb6YsOgi866hxYJRKKUprAKTnStSIiRJ/ilrNCQCxqShWwppqIBT303N1XOKkeDDIO+YBiWxihj65YnCB6kiU0qUVcna+oSyKKmqalCs6k0itbYoBbPZlPv37rE2nhDaDhUCd+7cZXd9ncs7W4wma4JD1zUxRiIKW1VUGxuYakynFHXX0jY1STmistR1Q5tZLEYBFJRVQVEIPGG1zH35zrNYzFksFrRtg1Li5WiVwAIhJkKM+CAThcoH2i5gbGZxGIstZWgkBk/b1vL6Y8QpxVY5pnI1KjziyZNbHB7dxpspm9s3uHTtFdi8CmkDohtya1IBlTxaBWn95e9ID2ucT9BqWJowJOcz3/D8+2IWMSNNk+D9B/DurUc8OuxwraKKHddc5LvXX+YvXV/nGqBPj6hKh3FyLgplWZoTXaTo1dBEKqNpZgvSaI2FNvz0EP7wo0M+eBJo4jpFE7lUOH71+h5/7vV9XtqA0gdUt8Cp0bAS+iKKVmMMbduilHj/vfXWW/zWb/0W4/GYtm1lJbySOHu5glXa4ReVoAeYdGX/zjkWiwVra2t861vf4tq1az/3/r58V+/oheKUAr1TrVfi7t3i6Biw+oyXdrA44vCjH/Pwox+z5iJq5xJh+yq+WMdHwzxEfIpop1AOMBHjkMaWb2i9JwUtQwRJbC21IuNMWQMkpaH7LCTx1GMSpBAJweM7oZ4ZrSnKgsIVgr22AlkAlGWBcy7TakqMMTgn8IK86WJGIPhTzeHRIUdHh7x24xVuffghu7s7xBCYTqf47U0KbQgJGb4wAqVUaxOqyYQOxWKxYN55lHMkQk7OXa7udW7klayvT9jc3KAsC4iRrmvx2WC0aWoW9YKUIlopQtdK518ZlLZoY7DW4VxBUZY457DOYrJllvcdTb2gaRaErkUrGLmCNesoTc389AEPHv2U4O9zaX/CtSsvozcvg5pAXF6oezwwxVZkKlcZGc+ons8k6IE5kKMXx89qShH5UN26B//i3bvcOZnj1YhRqDkoNb/50ja/eW2bq+0p60RQjdAEgmXkCqyJ8h5gfyYZ8pctNEkMNozlWBk+nMIf3X7M9+/OOWxHeEqqMOMbr+zza69s8/quYi3NoJ1TKA1mInMLnrMg7ueInkEVY+Tg4ID9/X1GoxG9sXEPK6xyIvrVVq9R8kUk6L6S76P/XoYQKIqCtm3PKBD+rPiSE7SBkBWnlAej8VrEkXpVsh6jHhOxcQaLB0zv3+TTOx/iO8uVKy/Tblxl5jZpKYk4jCuw5QjtCtAKj0dFUVxLXUv0HqII/2ul0MbkytIjsqM9L275HZdpdGkKdrSoIGJFxjiKoqAsSoqioOs6Fsjy39DDCBXWuaHO6pdQPdVtFetyzrK/v8/L167z8P493njjDfAe6xx10xKMQBGmLIGEdkIjXLQt884zaxuSMZSleO01rcc5Kz/WMhmP2dzcYHNrg8naWFgmXYvyKn+IjbAwYiQlaXi5rFqnlEFrgzY5OVcjynKU3aKluRtDR/AdwQsbpCosZWGZaLDxHm39hOMn95lPA5tb19k/eIVi721gV+wp8huuDBgVsyuHgZBvVHaZjFeS9PCvQjRIdP4Dll11JZzohYGjDc0Hs8T/+f4H/PSTR3hbcalcY18ZvrW3xV9781VeqqA7fEyYjDCTMW3b0QHORJIKYr22MtZ+ERK9J1KoKj6awz/98CE/uHvCZ63B+oat1PLmbsF3v7LDG5dgrKBNiaQd2hZYFKaG2IvtfM7T21e/PYTRG+TGzMRajZ+lCPh54/xQUP9vn5T/pKS5Lz9BxyKPvHmiho6CjqWmXBGEvmLVCdR3OLl3k08//DH14phLl15mvPUKbbFHp9fQqsTZEZUbYUxJjFKVxnZGUh0pddgYMcqgXYHWJUqVkFzGL+XLtmrAmVTPKMlNQaXwnSJFwahGZcVoPKZwouNqbU4gOfmWRYnNDcO+go0xYp2MfIYQhjfFGMPe7h6T0ZhRUWKNYW93l3FZknyXRYjA2JKiLMTXrChIWtOlhCkcG+ORVM/WEDysazmunvI3qgQfJyXm8znBd1I5558YA9baldHTRFFajOkpZMJ7Tkgyj0lwdhkSCMTgUUQKZ1C2yHQ9g0sLQnOXRw9uczp9xNbWAdeuv8Jk6zqoSxAnYItcMXmiblEqYlBSVceSpQHcKrcYlqCUJOGoVsQLMwPAIyszj+gNv0fkf/rwHf74/kNmVKyFxKVk+fWDK3z3xg5frQxVc4h10FnFXEFXFgQUFR5Hh9GFTMtdxJlIaOqQOIzww3tz/vDTY+5OIzMz4YppeHOz4K++fY1v7cNIQ6TFa42qRrQUovMcA1r3BLXPF8+CJ/rvdwjhuW7mq9OWPQ32izgW7/1wkeir9L6y/pPqcn/JCbr/ihmSSrQoOtTgQGATVN6j4gn4+/DoPR7c/ilPHj9kfeMy4ytvMnPbtHqMUhVGlzhbUlihrjW+wddzfDPHmIRRUYY+jMEYh9aOhCbEXmYxZRilV7VTg7RmytS6HpKQxpphMpkwGo2yhmvCxYg1hqoqSWT2RoZEnHNMJhMSYPJyq2kEH+6XOusb6+xub+PbjqZtUFqze2kPYkQlmeIzCrGRUmCdE01crTFlia0qQkpMFwvaNlCVFq2NDKVkSKVpa5pmIVoaSbi5KUMCKu/T5Ct7SpEQWrqUUEo4qeI+DCkF5F3LbhFWE31Lih1WJ6xJxNBSzztiPCLN73J0/CnGrnH16lvsXHkTzITUgCoKUcBSC2LyJLzwXylAZarVyvejZ9X0iXp19jKqOAzrJGSCr0N49wG413q+99FtfnTzLouZY81N2EmWr27u8Bde3+BrexBPwVNQbmwzU3AURYFUI0m+SAtQInd6EWejVXBi4P/+6JT/59Z9Hi8aus7jUuTlLcN33rjEt18p2NLguxmtSURdoCloIX+uzRcKb/RJeJWh0UMe3vvnWn2dF5T6vLF6HH0i7i3I+ibmnyS+fB60kAPpFNRJvkwGmb+vEqhwCM19ePI+D25+j+P7j9jauszmlVeZml3mcZ2uFcFsbTU+RUI7hyDLbUekKEtEfVuaWylpCJEU8iQSgnWGFFBG3jij7XACFQj3WWussayvrQk00i9Teogin3hXOGD04pedJMOUlVTDKVfpiYSKoKsRSmnWNzbYvXQJYsS3DWR8r/MdqKw1kT88bfAsZlP66WWtVWabhOF1xJTwPme63MDUqNyo7FUu8pRijAJdyOQQkspDZrXIaHR/QSMGnLG0PtK1NbbQuMISidTtgsXiIdNH7zJeG3Fw8Bq7B18BewW8IRBQSjxdIjPRWB/EK4zMS/fMjJ6qkRgU7OSI83EjAyEyzi6yqC2KBphGj9eaH966zR/94CYzXxEbA7XnpYNLfPvyBtdL0Efg2wSTCYdTOLQwz0WNBTYC6CjV9M+aPf1ljJmBOwH+u3/+Ae+eTGF3j3HRsjnyfPvVXb798hobscOmGmsTXhXMM6cLcoJWuefzBTIngKcS4Ivw3lXosf/7i4jzNDpr7S/spP4lJ+gsA4lgi5Io83cw1qgwA/UEHt/k3k/+OQ/u3qYY77G+eZ3gtjlJFbUu0SlifZKRX80wDk0MqCRf/uA91mrKosQVJdoUgpMF6AKgHaP1ddDZibp/c9KSzTFgVrlZ2I+v9jhWSol2pUH4vAh5H2fm7Ff+VgnaumX/YJ8ueO4/fIgzOnM0s3Sjlup+kBFl+dMPCqSkntIFWQ5fLZ87kkhBEXtp9RTzyHogppBtixIyGJJQOTErJVW1QDmO+eyUwiZGpaFrZrQJRpWjiTUPHtyhpOP6y29x8PLb4LagMyQDpjAE7fHJ52VtVkhOdmD3JJU/JqssjZSPgeWEnmD6MtXniT2RkwAsUuCTzz7j9r2HdGoC5Wbm2jqOdeDd4xnTTjNuj2i7htHGBnNdcmon1EpYBZKgT1kPUxrtaLT7mbrcv2wxp+B779/lfmcxriBMH3F5zfDn3jjgO29cYtdCWsyhWMonLR0Bxai1M0rG5v+lvpL//8eXm6BNIhGyWSmDEI5JUMYTCPfh4fuc3v4+x4/uM3KbjHdfJRYHPKkLTgpDdJZ1q6m0iKiYzMaIMdB1DV3bkGJgY32doiioqhHVaCxJWllCSvgQqUPLtJ6L+HsePRgSc0rDaHdaYXb0I98y7CJJVmv9tCLVufh5PAnXNtb4ze/+Jnu7u/hOlmDO2ky2D2ijmc7mA5shDdWkWv6e1IoSb64I5I78LMvn6xN2Gl5bGq5Bw+OGoYy8RCQPtyDUqq6ZYyKMSo0yAd/MOVm0nB4/xrc1V69e5eDa67C2A6Gi6RLGKoyDkDykIEMkFBAq+TT05BkDCY8JzxK0Ok+4k1i6eQi0Ma1rfvjOO/zoo0cc2utMC9EL0bQcL+Z88Nk9qtRiuzmdj4iQaEmrxoTkMCnikmccZ4zjjJmzTK0eVjAXIZHSCGN3qcoNxszZcZ5fu7bJd64UXLadSCgaTdCOpERjpsRnRR5LxDBzeRXNRQv2RfGlJuioVRb50TLdnQ2UnWognsDJJ9y79WNO7n+MqXZYX7uOLy/xZKqZVRa7PsYbzXg0woWOplkwa2uIgVFZsL2zxdbGBqNqJEyRlAg+0HYd9Vy4vk3biI+eSkRrxUm6P8A+CeekpbNK25DOUh5eydg0pMGx4YWvO2YxlKc2y3qvOQHuX76cedoiku+7Fu+DbBOi6JTAQGcYWmVp2N1KV3q46ezzsEJRY7lqsKanF0a0mEYOPYOUhq2Fr6qgqedUThPDghQUk5HhpF5w77OPIba8+uqrvPbqdah2IcrHSleK5IRZIRcBoTyq6KR53L8NGqIKJOUxSQmjY+X8LS9B2XqLbPyJ+N/1q7LQdDy894D50ZzNqxXKOILyRB3wtBylBSpFbGHQZYX3mpQcKelB1kFFTa0KooK5USysNCUvYiWixi/mdHHK9aLmW1e2+EtvXOPNzQIVa3RSFMU4q6JEDC0m+66IaqjAHf0Q/cXpfX58qQk6oOlkLlD4E36B0wH0FI7v8uD2TR4dHtGpMbbYgeISXm0Sig02t/cptreYNTXN7ARlFGuTEaP9bao8fBFjoO4806NDZtM5KUplKIk1iti7URSlQivDrAs5Qa9U0KwktZVj15kd0Cdjlf+WavvFFbJAIue3UStwm6KuG5QSXY6qEjy7qaVp2I+E6xUsq0/4auU6UNRSAAAYfklEQVRv0Xxe0h7yNeTsBz5j38tXjWybE7VCQQorK4m+slaZApfQRIJfUNoEoaGrPaFpmJ0+QsUFl/Y2ee21r+C2LkMoCB5wghcsk5tGp0K0maNdnh7d0+MyuNKrxQ2aRMv24AB15IspSXSIk4JSwaYb89LOAdZF7kznFNHjaUkm4nWgw+OlSyrUwhQx0VPEGhsVJiIXiKQgGSZdIIUgjkAXMUQgsYgde+tjfv3qZb7zyg6vrU/YpqPTjlbJgJBWCoPBYjFJvCIT4sYRhL9zkZx/RnypCdqjaaRmolId6Bk0x1A/4PTu+9z/9GNqD2btMnF0DbZeYbJ+mbFbx5ZjdKEoCIw2JmgSPnq6rqFp56IDEUUSM0XwIYor7jCA4um8h+QBj1eWYEpirpDPpOOc1KTVFlYS2koMuU0tu1fPi2Fa8cyNg+5HQuGKgi4IN7wYlcQEbQhobbBlSWikYdgfW65t5RjSCrMh5foxiYHrcnXQH0ovoq0GtkrKkE5fkafYCWMjLi9ASUBuFAmdPDHULGJN6SJ1nDM7eUAKcw72t3n91eu48Tp0FRSbaGMJWuOJg59IilZGtFFLID0LVyWVMr5u0Uqj9VDMrywWVuRY8/vsIhDEXdxYzaXRmN/4+reYBcM8jmiiIdKiDXhraBTMMTTaSrJPgTJ2jGJLFSImGoiWjhEdFkfEqjbX6BfRR6cUh23NpLL8yt6YV8eacaihacApsJYuJop8HdbJ5fc8UzStJ5CyrNUXY8P1ZzW+ZD1osez0KQInYB7D8Ucs7nzIkwcPwReUa5ex29dxm1dwm9coRxsoNH7RkKYtY63owowmebrQEqL45km+0ZkOpklBqmSrRDnOKCPVWpKle1Lyo57xgRAqV055qbedOYvj9mhD4mdX0HnDJSTRP75P3ArQWppPSjGva5TSdMETvcenSNfKiPzgwJhfS69xTQKvxIhedt2DuWlIxMAKpk5OvEt8PW9ASp7eS2ylN5o1hSVBkxp8O6VzgRSmdPWMna2Kl64dMN7bgpgI0WLMCHTK9ltpWMKm3vZFkVkjtdhkaEVUlkQ1YMn6GaVVT+6QDqlchFVSFEFhlMYn4Ua/eXmfWoujdtRQxnJw244JZgpmSZ7HWEuBZZwCZUroaEmxpE6WGnBK43R1UeWdi6ihSyNU9Ow5wzqQ2hFdNMQkDKlSDxyd/Ll0iKRoi40tE92hqFCMuKijnx9fOs0uAcF7UEfAIzi6ycOPf8SirtjZ+wrF1W8Qd9+gq8YcRzhezCliwM5r3KxBG8dcd8yVJ6Qgcn+5UZeUwSdFCgmFQSMQhyERlcfI5QHVO9WmJFVbypVlD/Gu/Lf/rYcLelihvzfENKgTPy/64ZShYh4GY/LfKNowoxxVNG3L4viIoigB6Do/4OkalavlzFpJcYAdVISWSJvCkKCHyjitJuyVNyIut1u+VqkkewxaCtu+SUjGfD1GBZyBdjFFpQX7e9u8cmOfrb1tKem1xZg1IpaOJjcve1e+7Ag1nOIIeg7Ki1UVo2E7Rcasz78X/YtICXzOsEpSgAFUC97D5jqkLuJGDRbPmk4UXQJfQSxJTpJ0p4QH4tQRY3WIogFdQZzQpgPmSWM1FKa3SbiIZXS07RGVKzBpU9g6QHJZLtgHQDi/mlVmjkJwrzlanSJfrpILLsfz45kJumfFprys1L3LW8oZK6nhy5HSynI0yYADSjDCMtUYP6OIJ8CUdHjMzU9OOKwnbO7cYHLtK7C2Qx0jYT7H1w31fEGHLF9N8CxSILjsbYgwKkiKFDXinCJNLaOt3J6kudazBkgB1T9WiRjl6iQhrFbJ5257Rh6OqcdEV6rUleQLDBzj1fv6QZmUq+g2BJqmxGfh+9Y5tDbia8ayqQe5Ys7nX61UyiEaQswiMBnuiDmZ9NitSIzmVzTg02nA4BVQKI2O0KiE15qoHQGDjVLXVgrWVUOcH9O1D9naLHjp+g22r1yHchfPBGM3UWYiF5YoKn4mz+HlBYMwcBKABjWC3OwzyKSn7bdlNSmvrnqElSFOoGpwjunfMJ2dXvLRY/Ls6NIBAJSBSstKPCmNYZyfK4CyoAtMUlTIBcXw7FXXL3dYVCrRqgK0MKNySjBJmuSSO/L7eOb0aVCV/JoffxHPj2c6qgj5X7rlYloVRMo6Rkg9biSyob2Dck8HG3i5KVA0t9HhjniynZzyzjs3+eTuQ7Z2rnBw9TWK8TazJjFvIaKJueI6e0QRZXwe5V4muMwP61/GQJmTu9LZhNjfFwfcYaW6lX+BgW633MfZxLoa/X095JFyAk1kWGEV4Dj3WIFidS5wl5DEkPBXbhveKBhe7/Cqw0gqQ6UENsjZTfUzIDqhMmDde8fpnkqXkozbRhhFTeoCpwrmhcXrilo5XBdYT7Cna9bqO3DyMZNyxo0be5Sv/QpsXyeYlzjWOxRaRneWA+Rn4+lF7LnzeW4F8/xIP9cWz9zrykNXse3lUuM82n+x+H5+fJ4zdP58X8Tz4pkVtHzP81AAqxBALseSXBtTSmizrJy1BtHdiTTNgtjVaBVgOuP9mx/wwYe32Ny5wtbOPvO649HJA3wyJFXk5KxXYVSW6SrX9CuV79mclzKskLcfoIR+J2mJXQ7Vb37k6o7OLf/T6r56OKSvRvvbVpNqf+y5AbdKqVNqpSZWkjpS34jst2P5cU2kYSCmn2KU/ejlfrVF2fw8GfZRVqOtFvftXvxaJbQW8wHdS6RHcU4niNJdREogh8XEhE01LiyY0FKw4PjwE/Y3HPuX36A8uAzja2D3UGYksMSySB0+LS8O9YK/fv7HvXiLZwDZz9zm6X1epI2fFZ/nDF0k5p83XpigycuUZfWhIZkMb+hhK91XbsRseNph6bClg3ni4w9u8eGHtzGmYDJZZzqdczo/wUdH0gVRW1IyGUhZzowB9CNmKWYz0yRL+afq/qcXAk/HM6BE4fyuVgOrH5wMCKzsuxfgX73//Lnr2Q8MDcdV/jMZC+4fsJLA1TJhKxRax+E+pRRK62HsXClxR7e2X18i2thSKqO0lmSu80/PZ4tJtENiyHKqnqgtdqNioitip0jNFOMbSjPHhSeo5hhjZ2ztv8bWy2/D1lVwm5DWSVgsAaUi6osSV7iIi7gI4LlNwn40s59T65FBhuSckESQUsbqVCCFltjVKKShRBN4eOc+P/nph3QBrr10gzYojg4PUXaEKSp8jLRdm5Hu/rKwhBbEwKikr9j7ab/zRLZnz7qvcI+l+/X0Fs+5kKvn3Hn+9hfJF6Zlmf7Ugt7ojM8OsIXKCxQ1/O6yut2QoFercQWJljY0ouaqjXTXkiYGufDEfFHtRZBU0tIA7BkVyZKUZhY6VPBMfE3RRkZ+yrqa49IJi/ldjo4f8vqbb7F3/QbsvQzuEgRD40uUCRSqzc9xroy+iIu4iM8Vz6mg+851/4XTGezQJCW/97QtqxUQBM6gw7gkIv31lDsffcDNd94HVbG5vUUXNKfTlqJaY7y+TRs0sQnYTIHrq+eBoZvk+VUypCQ+X0rrFQ7vMvSKYMrzRE+eNW9wdtvz0MnT2wiUInwDtdyAZwp+Z6j3qUSvFM4Vw+3LRH72GELK3O6VV7uEWKBLC7owQ1uNMQ5lLChp6cYosIPqRYlkXA9iPyEoVMRooNjcpFHCY90aaw6sZdI0zE4eo+IxZt3xyhtfEUcUt4lXa3RaVN9s9BSmReNQf3oexBdxEb8U8fxvVN9YywkhKXO2wgWC77CFhdTR1SeUhRLFmXbKvU8+5IP3b7JoEvuXb+ADHJ8uGK1t4coxdRvpIqSsKhfVsomjV6pnUHgfhPvcJ269bPYN1apexW9XXgar2y5vHx638vfgrPLcUyJDFQJL5MeuVND9I2VgJEMW2YVE5THyfntjezil18U4i6/3VlpPH8TK7yZSukLA/ywgFCEP8EiCNlnFTmWXcqMsVlucdVhtSFaxfnUbPUpctZ7LZYSTT5n+9F0eHd9la2vMla//GuxeA7XFPBV0FqzLkrHovrX73PN2ERdxEb9YPDtB98l5pTMmEMRK/1WJbrKig7Cg0F4q50XNyYPPuH/nI5qmZbK5D3aNLnSo0mLKNRZd4mTeYFyJsivQxpmkl8jjbCQdMkXu6d5xn2itcyssCFa7gM9MdGkV/liFJ1ZZIv2pGPBwMrZ7vg2lziT/FFN2/sgAkZbmHkpkP2V9srTeSkqYIDGf816q9OzzrGDfGaOWlYxhGBbMKx6lDc4aCm1QGIyxlEXJuBqzNp6IYUA1oiwKtFUsYk01VuzaE5h9yuLx+zw+vEXUsLl3A/bfAr1LZzbodEWXL4ZijhLBZ7qbuWj8XMRFfJHxsytoyAl6OaELuSdlEl0zw6VaNNebmqM7H/HpJ7eYHj6mKNZRbo3TOmHdGGc1h6cN2hYZ4hBT1KzW0z/x8vnRKALWxacEzpbNM2ElyC4UqwyP8wMiZ4o8lZYJlLTM+Cwhh+XAR6bT5cr+3BD4cNRDIs8w7KBEt4ovp/7sqeF4ZdueuSwJW6GyFTz0KnN9g3JI1FETvfDANQptLEVRMhqNqcYTyrISP0HrKJ2jKgpKV+CMDGH0u6naxEgHmN7n/gff5+Htd1lzga985Vcwl78B3YRktwhujQRZI7lB49FJyWgZ6jyB+SIu4iI+Zzw/QYeMQWfvt76vBEuWh8GjTBR5QV+TTh/z4O5tHt27S1U6yrUNZrEgJE1KYoYalBZT1CjKVrIkD4OqXG8rJR5/CQgyFo1oTfTRew0OzrwDBzkuudIrx9tno7giH0pKmWC/ZEekvE3v2Zdy8laojH/3Fe4z0nR/PdP6TEXd37VC8pP/9wl/haHRby1oj6wkevZKTNlswGS/RByuKJlM1llbX2c0nlAUBcZajLNYYzBG52GViLMKqxMqtQTfQgziQsMUpicc332P+3du45Nl46U3MDe+CeMbENZo3dogXu9IOCIOT0+5vEjMF3ERX3y8uIIGpGW4xJ77llVKHaGbYdMCVAdP7vPRzZ9w+PAzKqcZVQVtFAEcjCNm881yXIoGhRFLKW2yM0a2QrfWUrgCaw2KREyBLiwIyQzJFTKmqyUBKaVo2jazO5ZxnprWe5fFPqGvqN3HJdy+fKxa4sRkiCGplaQ6JKYe6EjDSVplZcj5hCWvWlwglupxibgyet4/v7HmzIXLOUc1qhiPxlRVxdisMTJrVOWIsiox1ubXrLBWCbtDJUielDxaBUGpU4cKNSG0mNhAfUT67BZH9z7CEtm++gob196CyTUwu9S2oFV5uhrExSYnaTnmC+bGRVzElxEvaLsvS6IBG84hQ2otqpuDbmB+yN1bN7n3yS2s1Wzv7KKNI3hFaQ0YixLbDoFJdIY1srRm7x0GkrisEceTGAIxJhbBEGJ26V3BlHVS6CSyhTbYpybvlNLolPHfBD56erxYVgS5Ug5RmpC5udc7iug8yt5DHCRQvV7FOcrb8mSlzHvuBT77ZuQyGaeURIQxqQHWiDHKM5vczDNGquH8b1VVy58MXYxMQaFFw4MY8cHLfpLC5Ao/hoYUW6AjxIYUGmKoSaEFPCY2hIcf8+j2u8xbxc6VN9h7+RvYzZcIdouGgjot0QuDqF8YHDoBeNBiz/VMmsxFXMRF/MLx/AQ9VIbPGob1mJSd4JoTHn30U+7ceg+rEtvrG5SuIJmC9WqN0o5J2pKUEneTGAgp5kpUUWiDsWpgMoh2aEdKkdB5vI+kLpFCPoAVIDwpSFp0GSxi6rocz+6rbD0k0VKLBsDgtKsigYCPnhDD0oE7J7fVJt2SCie0w/MDKD0sMZhWnjmRS1xd9Zh4pzDZq8xYk6ELQ1mWVFVFURZi3+Uc47FUzM5ZcvEvolAxQNbZBbAmV/DJQ9cRmw7vF8TYoGgIfo7v5hBrjBadks7PefzJj2lO7rO5+zYHl99G7byJL3aogRaolbhf9LreLoJNTs6FDqCzGNUFk+MiLuILjeckaJVpW4DWxJUKWtJTh6KFsODxrff4+P2fQLtgd+8So/EYr0RXwxrQpiPgBfMNnhREHL6fdrOhwyRDCJIgY4jyEyPBe2JIWfjGLKvnlAs2paXqzHDHMMiyUmX3yVlrjStLBGtYDr2EGLBJlPICK9S2/Bx9g24YKMnMiNU4Xx2fv60/jlW34VEpLIqqqiiKAmutQBi5Si7LAlVWK8/iIXS5ik+YlCB2EFsGOmRv5x4CqV3QdTUpdcTYELo5MSywOohllUocHz3h0eMHHB6esrd1jYNXv47afRn0WFoQRt7vkogjZlqdFUF9QNzaHUl5hHB3AURfxEV8kfGCCrqvMpdii/K97DCpBV8TTh7xyfs/wc+PuXZwCTcaERUY4whYmsUMH2eCMceIj1GGULTKlaOFJIaf0QdJyF4gB4UoY5mkUFqGIJYIs7AWhBUh/OLCFiy99jKnYkjkikjCN/MhMQ94dhIpT5sStudGryTbPqGaPDKthzpylSWyss+UKJwDJSat/T6MMZlRYXDWcbC3S1mWlEWJtoLPA3kssxPK4my2QjnMPzGvMqQMh9QSfUfXeTGrzcyQGDw+SHJumzltc4rGsz4pGKsK3y04uneHTz79hO3NfS699k3MlTfBbZGCHYTjFJ4R4utn8nuisfKeKojKEbIsv3smv+UiLuIiftF4doKWrAaQJweX8IYmoFNHd/qEd37wPebHj9HdnNnxIbYL1MEwD6d0dkJhFSY31ULKBqwklNEka0nW4mFp2BoiKYKKiLCPEqfr6JcDJP0AiM7JuW/GTU/rFVW5/nUgHoOZh6ys6CynIAyNHnIweR9aqWFSMa5Uv8ZodDLopFHKotADda9v9K0yPwo7Qiudh1rk8dY6iqKgKBxGe+aHH9Fog82NvRAC3uckm5N+5z3WmJWLWSKEiPcd3nu0SRRO4YPHh0iMoJQke7kAibFu8EKJcybhZ4qThx7fLgi+YW97n+tf+fOU174GxSbJR4IJOG1RIRLaBdVIVh5igNCBikQlGoceQ2CctQ0vyBwXcRFfZLy4glaqV4Je3kwEPL6ecv+TW1xed7Rt4PDhfcbbUKeCx4tELBPrJajuVJgEyOhyjOLtS09rW4UjMpdPZc01ozTKQIg1SfllfdazJHgaJx721/OOe3hCCVXwvBa07IMBdz7Poe6fQ+leprPX8uSp5+0bnbNcyffVe19B9z9aaYIP8jp7weaVfaQkzdL19TW6rqOu6+z2HYdK3DlH3Taczk7RxmCMw5gCrS0xKoKPhBCwWuGswVlFYRWz0DCfHhN8zcGlXa7ceJ31q9+E0Q18aEiuwZoOhadICacUyvcj/1EagrrNJLsCj1xkV5D2i7iIi/iC4pl60LKkFtqbV3bgvybApTk2TqE9huPP4PRxLnmNrLjNiFRtUasS6mNMmGGNNMREXGnJmEj9TnOlq5Xu3QIG81KlAtr2jSgGvvPyUHMSdU40Twemx1LxbtnvzGmkx4PP83fTEhbpsWc5xDTcF6OsI5aJ/9yZS9nQtKfZDVxm5HXn16VRQxXeD9zopbo+JJEDHZgiGV/uVxsxRpS12KKgp0IKtq5ZanaL1LzvWkLXUjiDqhz4hjg/RRdOxI+K15mldZwDa1pCtyC2c0o3FpeRpgPnQEuCTjricXQ4AgUeKICKf1neGM+6NPzZq+VXFoZnb3wG53411AvvlS1efAZX7h2e74s4v7/o+/bL8X7DixI0ia5r0bYgZBwVBck3mNRhTAJfQ7uAroPRSPDRALgKtCN1NSp2UDjBVnOjkCHhqGXptZxXHqp3iSjAZ/JLNwCtlw2x/vC9X96WYYLheXp2iDUyVEOCXqwoBPkZXl+gbVsAyqqSY4/52JQCZWWIJyZ813FycsLO3q6IU7Ttcvv+A9MfizH5+BJ0AUw20tT5GEhg+iafP9v0O5e4h31qLfsld3GTggxxiG9fXGkc+mUzUeXzQZQEbHcIqkBpZKA/Bbm/l5WN+f3RCnTChw4fQVuHUo5soiPLsRQHlsxTn6q8QhiYNSu3D6uQEIYLVYwR59xwLjvvSSThz+t+xbOiW67ksytv/Qqu/4LoVz39MT/r63BeBGtVGOtMM/o5r1kpRdd1A1On5/wbY87s6/y+u64DwHvP0ckxu/t7GKUFkusPcyVBxxSlH6ANIcnrCl1H5UqIUViQZvlZiikSQkRbQ12Lu3yIYlwMS5m0GALEiDa2P8j8WZX9hCDukzrDksN5yQVKjMKg11n9MiaZR9CqfwHkIbSlW7BaMWaOMZcgWvbVdS1lWRCCxxhxdvI+5Psld1nrCCHQdR1VVdF1YvghTCi9sm+BJY15GkyYz+e5gW+IUWYVZKJXC7kgPyaEkKnCAR8iJkOXq59rk8XcvPd5Qvjnu6D8fxYfNgas5COHAAAAAElFTkSuQmCC;" vertex="1" parent="1">
          <mxGeometry x="392.65999999999997" y="404.54" width="128.83" height="50.46" as="geometry" />
        </mxCell>
        <mxCell id="voiFLc3XGYJ2ryhJtGz0-12" value="混合注意力机制模块（通道域、空间域注意力）" style="rounded=0;whiteSpace=wrap;html=1;fillColor=#f8cecc;strokeColor=#b85450;dashed=1;" vertex="1" parent="1">
          <mxGeometry x="275" y="410" width="110" height="50" as="geometry" />
        </mxCell>
        <mxCell id="voiFLc3XGYJ2ryhJtGz0-19" value="&lt;font color=&quot;#00cc66&quot;&gt;Feature Pyramid Network&lt;/font&gt;" style="text;html=1;strokeColor=none;fillColor=none;align=center;verticalAlign=middle;whiteSpace=wrap;rounded=0;dashed=1;fontColor=#FF0000;" vertex="1" parent="1">
          <mxGeometry x="391.26" y="455" width="107.5" height="30" as="geometry" />
        </mxCell>
        <mxCell id="voiFLc3XGYJ2ryhJtGz0-21" value="&lt;font color=&quot;#0000ff&quot;&gt;头部网络&lt;/font&gt;" style="text;html=1;strokeColor=none;fillColor=none;align=center;verticalAlign=middle;whiteSpace=wrap;rounded=0;dashed=1;fontColor=#00CC66;" vertex="1" parent="1">
          <mxGeometry x="610" y="280" width="60" height="20" as="geometry" />
        </mxCell>
        <mxCell id="voiFLc3XGYJ2ryhJtGz0-22" style="edgeStyle=orthogonalEdgeStyle;rounded=0;orthogonalLoop=1;jettySize=auto;html=1;exitX=1;exitY=0.5;exitDx=0;exitDy=0;entryX=0;entryY=0.5;entryDx=0;entryDy=0;fontColor=#0000FF;" edge="1" parent="1" source="voiFLc3XGYJ2ryhJtGz0-6" target="voiFLc3XGYJ2ryhJtGz0-23">
          <mxGeometry relative="1" as="geometry" />
        </mxCell>
        <mxCell id="voiFLc3XGYJ2ryhJtGz0-28" style="edgeStyle=orthogonalEdgeStyle;rounded=0;orthogonalLoop=1;jettySize=auto;html=1;exitX=1;exitY=0.5;exitDx=0;exitDy=0;entryX=0;entryY=0.5;entryDx=0;entryDy=0;fontColor=#0000FF;" edge="1" parent="1" source="voiFLc3XGYJ2ryhJtGz0-23" target="voiFLc3XGYJ2ryhJtGz0-26">
          <mxGeometry relative="1" as="geometry">
            <Array as="points">
              <mxPoint x="640" y="340" />
              <mxPoint x="640" y="316" />
            </Array>
          </mxGeometry>
        </mxCell>
        <mxCell id="voiFLc3XGYJ2ryhJtGz0-29" style="edgeStyle=orthogonalEdgeStyle;rounded=0;orthogonalLoop=1;jettySize=auto;html=1;exitX=1;exitY=0.5;exitDx=0;exitDy=0;entryX=0;entryY=0.5;entryDx=0;entryDy=0;fontColor=#0000FF;" edge="1" parent="1" source="voiFLc3XGYJ2ryhJtGz0-23" target="voiFLc3XGYJ2ryhJtGz0-27">
          <mxGeometry relative="1" as="geometry">
            <Array as="points">
              <mxPoint x="640" y="340" />
              <mxPoint x="640" y="356" />
            </Array>
          </mxGeometry>
        </mxCell>
        <mxCell id="voiFLc3XGYJ2ryhJtGz0-23" value="head_CNN&lt;br&gt;" style="rounded=0;whiteSpace=wrap;html=1;strokeColor=#6c8ebf;fillColor=none;" vertex="1" parent="1">
          <mxGeometry x="550" y="323.75" width="60" height="32.5" as="geometry" />
        </mxCell>
        <mxCell id="voiFLc3XGYJ2ryhJtGz0-26" value="分类" style="rounded=0;whiteSpace=wrap;html=1;strokeColor=#6c8ebf;fillColor=none;" vertex="1" parent="1">
          <mxGeometry x="660" y="300" width="60" height="32.5" as="geometry" />
        </mxCell>
        <mxCell id="voiFLc3XGYJ2ryhJtGz0-27" value="边框回归" style="rounded=0;whiteSpace=wrap;html=1;strokeColor=#6c8ebf;fillColor=none;" vertex="1" parent="1">
          <mxGeometry x="660" y="340" width="60" height="32.5" as="geometry" />
        </mxCell>
      </root>
    </mxGraphModel>
  </diagram>
</mxfile>
